<svg width="339" height="144" viewBox="0 0 339 144" fill="none" xmlns="http://www.w3.org/2000/svg">
<path d="M6.00056 77.2491C5.94893 77.3313 5.89851 77.4815 5.84674 77.4819C5.69894 77.4801 5.55295 77.4179 5.40528 77.3792C5.45691 77.2969 5.50891 77.1477 5.5591 77.1463C5.7069 77.1481 5.85289 77.2104 6.00056 77.2491ZM91.8365 66.3423C91.7378 66.2779 91.6569 66.226 91.577 66.1725C91.6937 66.076 91.8017 65.9582 91.9353 65.8949C91.9812 65.8739 92.091 65.9892 92.1735 66.0421C92.0595 66.1448 91.9449 66.2449 91.8365 66.3423ZM94.1587 66.1514C94.2208 66.0546 94.2711 65.9726 94.3227 65.8904C94.4187 66.0113 94.5355 66.1209 94.5994 66.2571C94.6206 66.3043 94.507 66.4151 94.4554 66.4974C94.3563 66.3812 94.2556 66.264 94.1587 66.1514ZM112.035 72.2798C112.134 72.3429 112.215 72.3961 112.295 72.4496C112.178 72.5448 112.07 72.6639 111.938 72.7256C111.89 72.7469 111.781 72.6316 111.7 72.5797C111.812 72.4773 111.927 72.3772 112.035 72.2798ZM113.617 72.7954C113.921 72.2729 114.319 72.1861 114.811 72.5343C114.509 73.0575 114.112 73.1444 113.617 72.7954ZM81.2907 61.3154C81.6072 61.3773 81.9292 60.5399 82.3199 61.3034C82.0469 61.7029 81.7128 61.7541 81.2907 61.3154ZM119.18 72.5336C119.532 72.3911 119.997 72.5201 120.253 72.0887C120.131 71.9531 120.043 71.7757 119.907 71.7209C118.926 71.3293 117.956 70.9189 116.986 70.5031C116.055 70.1033 115.002 70.0004 113.416 69.6279C113.176 69.447 112.455 68.9002 112.145 68.6638C110.653 68.3129 109.654 68.0738 108.654 67.8476C108.563 67.8278 108.454 67.8763 108.36 67.9091C108.18 67.9716 108.003 68.0472 107.816 68.1193C107.757 68.4886 107.695 68.8624 107.636 69.2343C106.818 68.9081 105.801 69.0661 105.197 68.1719C105.508 67.9648 105.816 67.7569 106.142 67.5395C106.032 67.4149 105.948 67.2367 105.814 67.1813C105.201 66.9249 104.539 66.7721 103.962 66.4505C103.44 66.1606 102.952 65.9697 102.345 65.9005C101.705 65.8287 100.978 65.611 100.504 65.1999C99.9103 64.6856 99.1425 65.0253 98.6061 64.538C98.2246 64.1914 97.8481 64.5671 97.4673 64.5671C97.5271 64.8406 97.6688 65.1331 97.62 65.384C97.5806 65.5851 97.3069 65.7377 97.1514 65.8194C97.138 66.2263 97.2848 66.6856 96.6738 66.3879C96.8059 66.2116 96.938 66.0353 97.1514 65.8194C97.0478 65.5077 96.9593 65.1026 96.8708 64.6975C96.41 64.8746 96.1872 64.4238 95.8448 64.2871C95.5034 64.1488 95.2807 63.6979 94.8199 63.8751C94.7956 64.2885 95.3111 64.749 94.7244 65.112C94.2885 64.3665 94.2886 64.3665 94.8199 63.8751C94.8026 63.4776 94.5407 63.3847 94.2147 63.3727C94.0249 63.3664 93.833 63.3688 93.6426 63.3654C93.2142 63.085 92.7842 62.8037 92.3462 62.5173L90.4953 62.9218C90.1197 62.6586 89.7263 62.3133 89.2738 62.0915C88.948 61.9307 88.5344 61.9678 88.1742 61.8623C86.3599 61.3294 84.4819 61.0233 82.7128 60.3413C82.0956 60.1022 81.5576 60.763 80.9953 60.2949C80.4514 59.842 79.602 60.2146 79.1143 59.5814C78.6923 59.0308 78.0053 59.3721 77.4762 59.0619C76.9062 58.7265 76.1419 58.8704 75.6002 58.3337C75.0866 57.8263 74.2453 58.2108 73.714 57.6841C72.0987 58.1244 70.7707 57.0376 68.7396 56.8864L66.916 57.285C66.6445 57.1232 66.3855 56.9683 66.115 56.805L61.9676 57.7114C61.7987 57.9626 61.6294 58.2125 61.4528 58.4722L60.2831 58.7278C60.0169 59.1272 60.0656 59.4564 60.3845 59.8098C63.7899 63.5953 64.1403 63.8872 66.4519 65.3528C66.4917 65.5352 66.5166 65.7426 66.5877 65.9305C66.6187 66.0097 66.7511 66.0476 66.9215 66.1591C67.2394 66.0897 67.6245 65.9973 68.0145 65.9271C68.0961 65.9133 68.1941 65.9806 68.2851 66.0099C68.4834 66.3364 68.6824 66.66 68.8688 66.9632C69.1275 66.9231 69.3245 66.8937 69.4896 66.8685C70.5515 67.4935 71.5936 68.1092 72.6355 68.7236C73.8685 68.5264 74.3994 70.0373 75.5688 69.9864C75.6676 69.9826 75.7648 69.9463 75.8585 69.9258C76.3806 70.2662 76.895 70.6028 77.4094 70.9394C78.0958 71.3885 78.7809 71.8379 79.4673 72.2871C80.4096 71.9965 80.9225 72.807 81.6045 73.1739C82.2903 73.5453 82.8523 74.1308 83.7501 74.0861C84.0794 74.0687 84.4141 74.5388 84.7807 74.7111C85.7652 75.1756 86.449 76.1808 87.6623 76.2623C88.7524 76.3353 89.3268 77.7956 90.5961 77.5086C92.0421 78.4796 93.4865 79.4496 94.8732 80.3803L95.5662 80.2289C96.6043 81.0447 97.8259 81.3072 99.2069 81.494C100.048 82.0432 100.987 82.6594 101.952 83.2893C102.11 83.2629 102.306 83.2296 102.45 83.2051C103.577 83.7476 104.406 84.7866 105.628 85.0081C106.787 85.2173 107.517 86.1278 108.502 86.6046C108.593 86.6474 108.685 86.7734 108.76 86.7624C109.649 86.6226 110.206 87.4972 110.907 87.5761C111.559 87.6479 112.004 87.93 112.528 88.1867C113.59 88.7107 114.359 89.7356 115.679 89.8565C116.739 89.9538 117.333 91.3921 118.605 91.1317C119.802 91.9225 120.998 92.7133 122.142 93.4679C123.548 93.14 124.132 94.7689 125.443 94.7268C126.506 94.6909 127.082 96.282 128.37 95.9609C129.409 96.5759 130.386 97.4119 131.504 97.7461C132.727 98.1122 133.577 98.9665 134.619 99.5495C135.599 100.097 136.513 100.769 137.457 101.386L140.547 103.406C140.742 103.38 140.936 103.352 141.286 103.304C141.437 103.577 141.536 104.059 141.802 104.191C142.989 104.782 143.513 106.152 144.76 106.659C144.293 107.047 143.856 107.414 143.245 107.926L141.714 108.261C141.535 108.521 141.364 108.77 141.187 109.031L137.018 109.942C136.862 109.833 136.696 109.716 136.416 109.521L132.819 110.307C132.519 110.111 132.348 109.999 132.087 109.828L130.431 110.19C130.13 110.047 129.867 109.923 129.485 109.742L127.266 110.227C126.976 110.077 126.714 109.944 126.373 109.77L124.7 110.135C124.417 109.978 124.157 109.834 123.854 109.665L122.131 110.042C121.86 109.878 121.601 109.723 121.332 109.563L120.168 109.817C119.902 109.654 119.643 109.498 119.374 109.335L118.235 109.584C117.94 109.417 117.681 109.27 117.447 109.137C116.913 109.254 116.344 109.573 115.935 109.426C115.168 109.148 114.441 109.11 113.672 109.218C112.689 108.538 111.387 108.866 110.421 108.133C110.026 108.218 109.629 108.304 109.227 108.392C109.06 108.28 108.89 108.166 108.558 107.943C108.221 107.996 107.747 108.073 107.269 108.147C106.77 107.593 106.179 107.767 105.397 107.964C105.015 107.713 104.552 107.255 104.008 107.102C103.555 106.976 103.038 107.079 102.655 106.668L100.896 107.052C99.7666 106.43 98.4547 106.497 97.3439 105.904C96.3925 106.422 95.4345 105.423 94.2974 105.984C93.9541 105.606 93.5379 105.144 93.3128 104.895L91.678 105.252C91.0146 104.434 89.9568 104.44 89.0621 104.067C88.7348 103.931 88.2932 104.084 87.6944 104.116C86.5201 103.178 84.8613 103.05 83.3021 102.622C82.3757 102.368 81.4403 102.197 80.595 101.651C80.1344 101.355 79.5119 101.323 78.7395 101.111C78.3068 101.18 77.6327 101.286 76.9588 101.394C76.7995 101.052 76.6756 100.791 76.5085 100.439C76.2672 100.446 75.9791 100.496 75.7061 100.452C75.5219 100.421 75.3682 100.217 75.1821 100.165C74.9106 100.09 74.6213 100.084 74.2 100.03C73.9039 99.8369 73.4739 99.5556 73.0376 99.2701C72.4059 99.0588 71.6604 99.7881 71.0829 99.0313C69.9306 98.886 68.8286 98.6396 67.8158 97.9711C67.3646 97.6739 66.7126 97.6008 66.1891 97.5159C65.1594 97.3507 64.1572 97.0552 63.1631 96.8029C62.1561 96.5481 61.0395 96.3909 60.2197 95.5874C59.2359 95.6072 58.3226 95.3373 57.4912 94.812C56.6557 94.2863 55.5618 94.3644 54.834 93.6008C54.1066 94.1692 53.599 92.7898 52.8711 93.3556C52.1847 92.9065 51.4986 92.4586 50.7849 91.9909C49.8284 92.4292 48.9183 91.8557 48.0043 91.6828C47.089 91.5103 46.0316 91.4302 45.2994 90.9215C44.4424 90.3226 43.4152 90.3997 42.5881 89.7876C41.8132 89.2145 40.6652 89.3698 40.0018 88.5513L38.186 88.9481C36.9659 88.1489 35.7638 87.3634 34.5643 86.5774L33.2982 86.8541C33.1152 86.5474 32.9211 86.2214 32.7316 85.9038C31.8959 85.7207 31.0685 85.5385 30.2483 85.3575L30.1057 84.7049C29.1969 84.4558 28.1232 84.4325 27.4251 83.8986C26.645 83.3021 25.641 83.6102 24.9798 82.914C24.8404 82.7698 24.6153 82.5638 24.473 82.5935C23.47 82.8004 22.9047 81.6752 22.0475 81.7247C21.1914 81.7726 20.8844 80.9362 19.7456 80.9148L19.5997 80.9467C18.9085 80.4945 18.2552 79.9781 17.5267 79.6173C16.8377 79.2752 16.3917 78.502 15.3935 78.6369C14.7806 78.7176 14.362 77.6954 13.5456 77.8192C12.699 77.9483 12.3523 76.849 11.3848 76.9622C10.6974 77.0455 9.94045 76.5545 9.06792 76.2716L8.05972 76.4919C7.78797 76.3289 7.52892 76.1739 7.26034 76.0129L6.10755 76.2649C5.82741 76.1009 5.56922 75.9499 5.32156 75.8034C4.66825 76.0676 3.86035 75.8306 3.38395 76.4984C3.57015 76.8508 4.14135 76.8229 4.05631 77.3205C4.457 77.3367 4.90844 77.1916 4.6205 77.81C4.44627 77.6747 4.27233 77.5408 4.05631 77.3205C3.85037 77.4024 3.55208 77.4676 3.25379 77.5327C3.0358 77.8779 2.81837 78.2257 2.57448 78.6147C2.88855 78.8341 3.2045 79.0557 3.58796 79.324C3.75196 79.119 3.91493 78.9155 4.06049 78.7322C4.86036 78.9449 5.65786 79.2593 6.47356 79.3321C6.94112 79.3732 7.17633 79.6876 7.54078 79.8127C8.05891 79.9915 7.80663 81.0416 8.76737 80.8289C9.13572 80.747 9.63775 81.2269 10.0669 81.4729C10.576 81.767 11.2247 81.5065 11.7066 82.0003C12.1298 82.4319 12.6677 82.7511 13.0516 83.0398L14.4922 82.7249C14.6286 82.9804 14.7657 83.2329 14.952 83.5798C15.5229 83.9436 16.0993 84.5328 16.8961 84.7626C17.3609 84.3854 17.7976 84.0292 18.1716 83.7237C18.9463 83.9897 18.7595 84.6147 18.9829 85.15C19.1452 85.2742 19.3542 85.5438 19.616 85.6176C20.4666 85.8562 21.3077 86.0954 22.0078 86.6821C22.9043 86.5067 23.4571 87.2061 24.1549 87.5449C24.3915 87.6597 24.7476 87.5096 24.9943 87.614C25.8088 87.956 26.3761 88.7409 27.3724 88.8098C28.3827 88.8797 28.9394 90.1406 30.0061 90.0944C30.9501 90.0546 31.431 91.3061 32.4477 90.9119C32.9634 91.2483 33.5409 91.5178 33.9757 91.9401C34.471 92.42 35.1266 92.0352 35.6303 92.4478C36.0756 92.8118 36.5469 93.3134 37.2419 93.0087C37.6652 93.559 38.3508 93.274 38.8698 93.5441C39.3814 93.8117 39.8091 94.1454 40.4656 94.2517C41.4689 94.4146 42.5969 94.5925 43.4428 95.0845C44.3215 95.5954 45.3389 95.5736 46.1595 96.1995C46.6725 96.5924 47.4371 96.9685 48.0082 96.871C48.701 96.7564 49.0833 97.4126 49.6846 97.2539C50.2812 97.0989 50.5526 97.6974 51.0139 97.8532C51.2807 97.9436 51.5603 98.0054 51.8378 98.0512C52.397 98.1432 52.8728 98.6152 53.4895 98.4395C54.1825 99.0441 55.0558 99.2054 55.8802 99.5056C56.4198 99.7016 56.8168 100.113 57.5128 100.088C58.1294 100.068 58.5345 100.934 59.375 100.915C59.8868 100.902 60.3925 101.618 60.9448 101.703C61.4392 101.779 61.9182 101.729 62.25 102.136L63.4926 101.864C64.1784 102.235 64.7815 102.659 65.6195 102.828C66.4319 102.992 67.263 103.241 68.0994 103.402C68.8573 103.548 69.3176 104.549 70.2527 104.207C70.9798 104.767 71.8927 104.673 72.7054 104.932C73.5179 105.189 74.3432 105.406 75.1537 105.674C75.9648 105.944 76.8673 105.884 77.6063 106.405C78.319 106.056 78.6968 106.742 79.2322 106.95C79.671 107.122 80.1348 107.245 80.5973 107.326C81.435 107.474 82.2688 107.711 83.0562 107.973C83.7699 108.21 84.4352 108.619 85.2073 108.817C88.1327 109.575 91.0456 110.383 93.9836 111.086C94.6302 111.241 95.2204 111.519 95.9651 111.348C96.4352 111.238 97.0212 111.647 97.5971 111.734C98.2432 111.83 98.9108 112.455 99.4698 112.347C100.302 112.184 101.009 112.357 101.745 112.577C102.494 112.8 103.212 112.866 104.007 112.829C104.715 112.797 105.44 113.286 106.17 113.503C106.894 113.717 107.668 113.792 108.354 114.087C109.092 114.402 109.978 113.5 110.588 114.449C111.459 113.784 112.268 114.695 113.161 114.573C113.973 114.463 114.875 114.645 115.62 115.172C116.67 114.703 117.715 115.741 118.783 115.194C119.033 115.344 119.292 115.498 119.566 115.66L120.727 115.407C120.992 115.567 121.252 115.723 121.522 115.888L122.684 115.634C122.871 115.756 123.043 115.868 123.342 116.063L125.724 115.543C125.939 115.683 126.024 115.739 126.11 115.797C126.196 115.852 126.299 115.973 126.364 115.954C127.239 115.711 128.062 116.16 128.91 116.151C129.309 116.146 129.705 115.991 130.148 115.894C130.376 116.02 130.637 116.164 130.943 116.333L132.662 115.958C132.934 116.119 133.193 116.274 133.464 116.436L135.224 116.051C135.49 116.213 135.748 116.37 136.017 116.533L138.965 115.889C139.153 116.012 139.326 116.123 139.587 116.295L144.499 115.221C144.599 115.061 144.708 114.889 144.868 114.636C145.087 114.743 145.318 114.858 145.603 115C145.748 114.809 145.913 114.594 146.111 114.334L147.829 113.958C148.008 113.698 148.179 113.449 148.358 113.189L149.52 112.935C150.061 112.057 150.6 111.186 151.143 110.305L150.265 106.287C149.348 105.197 148.529 104.254 147.749 103.283C147.333 102.765 147.042 102.128 146.58 101.666C146.152 101.239 145.569 100.974 145.054 100.637C144.712 100.413 144.322 100.235 144.038 99.9487C143.778 99.6889 143.633 99.3113 143.449 99.0049L142.783 99.1504C142.012 98.732 141.422 97.8852 140.426 98.3253L140.236 97.4552C138.544 96.3578 136.782 95.3043 135.122 94.1043C134.211 93.4437 133.057 93.5089 132.177 92.7664C131.319 92.0449 130.339 91.447 129.351 90.9164C128.771 90.6037 128.047 90.6759 127.464 90.2043C127.025 89.8512 126.569 89.5073 125.888 89.4378C125.253 89.3733 124.657 88.8197 124.058 88.4551C123.533 88.1372 122.986 87.8336 122.523 87.4368C122.028 87.014 121.348 87.426 120.878 86.916C120.172 86.1489 118.915 86.5398 118.237 85.6862C117.61 84.8965 116.547 85.2748 115.819 84.6642C115.038 84.0078 114.133 83.5001 113.255 82.9727C113.027 82.8369 112.702 82.8751 112.183 82.7962C111.455 82.3151 110.517 81.6918 109.578 81.0685C108.341 81.2215 107.663 80.1017 106.628 79.7233C106.238 79.9178 105.92 79.6802 105.547 79.4996C105.225 79.3434 104.813 79.3829 104.451 79.3365L104.309 78.6852C103.741 78.2594 102.963 78.5031 102.419 77.9669C102.061 77.6124 101.59 77.3618 101.138 77.129C100.995 77.0565 100.665 77.3048 100.564 77.2232C99.4603 76.3274 97.9965 76.2679 96.8396 75.5081C96.1358 75.6851 95.7506 75.0842 95.2494 74.7952C94.8092 74.542 94.2616 74.9401 93.8649 74.4427C93.3946 73.8521 92.5961 74.0267 91.985 73.7221L91.8554 73.1294C91.0236 72.5893 90.2473 72.0533 89.2166 71.846C88.2987 71.6617 87.6796 70.5523 86.5497 70.6655C86.3923 70.6821 86.2205 70.4331 86.0359 70.3506C84.7727 69.7914 83.9283 68.3819 82.3547 68.4569C81.1555 67.6722 79.9563 66.8875 79.0712 66.3098C78.0832 66.0794 77.4435 65.9313 76.7061 65.7608C76.3757 65.3294 75.9667 64.8005 75.6485 64.2873C75.2478 64.2712 74.7976 64.4159 75.0856 63.7975C75.2598 63.9328 75.434 64.068 75.6485 64.2873C76.0292 64.1686 76.5008 64.0655 77.1026 63.934C77.4646 64.2602 77.8988 64.6485 78.1499 64.8734C78.9067 64.8076 79.3678 64.7382 79.8299 64.7478C79.9301 64.7505 80.0263 65.0283 80.1263 65.1798L81.5109 64.8772C84.2316 65.9667 87.2055 65.9664 89.7433 67.5245L90.8649 67.2794C91.1258 67.4366 91.3828 67.5947 91.6485 67.755L93.0201 67.4553C93.3711 67.7621 93.8306 68.1598 94.3518 68.615C94.7368 68.2661 95.0145 68.0129 95.518 67.5563C96.1636 67.4629 97.0562 67.0195 98.1173 67.1724C97.9062 67.5556 97.7684 67.8055 97.6303 68.0541C98.1465 68.4803 98.6063 67.9799 99.2873 68.1232C99.3518 68.1623 99.6113 68.3131 99.8888 68.4776L101.189 68.1935C101.325 68.4926 101.472 68.8127 101.598 69.0895C101.056 69.6952 100.398 69.5646 99.851 69.766C99.8729 69.8663 99.8745 70.0421 99.92 70.0567C101 70.3639 102.08 70.6669 103.171 70.932C103.305 70.9642 103.491 70.761 103.673 70.6571C103.432 70.0685 102.796 69.9794 102.392 69.6079C102.771 69.1307 103.09 69.1101 104.004 69.5272L105.116 69.2841C105.448 69.6796 106.102 69.6651 106.205 70.2839C106.652 70.4114 107.099 70.5389 107.648 70.696C108.049 70.1499 108.447 69.6069 108.838 69.0738C110.209 69.1755 111.45 69.569 112.453 70.5617C111.857 71.3948 110.605 72.4054 109.846 72.6655C109.958 73.2784 110.605 73.5914 110.927 73.5758C111.835 73.5343 112.372 74.1333 113.054 74.503L114.219 74.2482C114.478 74.4031 114.733 74.555 114.984 74.7062C115.521 74.0266 115.647 72.9685 117.071 73.0123C116.482 72.2483 116.142 71.8066 115.803 71.3636C115.397 71.3376 114.947 71.859 114.585 71.2584C115.315 70.8205 115.315 70.8205 115.803 71.3636L116.643 71.18C117.381 71.5019 117.957 72.2454 118.892 72.1051C118.965 72.0946 119.083 72.3828 119.18 72.5336Z" fill="url(#paint0_linear_526_5357)"/>
<path d="M148.911 60.8793C149.402 60.9127 149.853 60.7663 149.565 61.386C149.391 61.2508 149.217 61.1155 149.093 60.9119C148.685 61.0162 148.44 60.8581 148.364 60.4353C148.263 60.374 146.804 59.0552 146.805 58.9621C146.808 58.7185 146.866 58.4766 146.907 58.1974C147.353 58.4808 147.696 58.6991 148.031 58.9113L148.364 60.4353C148.772 60.3297 149.017 60.4877 148.911 60.8793ZM326.397 35.5063C326.292 35.3492 326.184 35.1913 326.049 34.9942L324.315 35.3731C324.031 35.2196 323.771 35.0799 323.454 34.9077L318.772 35.9309C318.499 35.7736 318.239 35.6228 317.955 35.4571L316.216 35.8372C315.614 35.2113 314.663 35.6019 314.056 35.0264C313.365 35.3151 312.743 34.9775 312.078 34.8853C311.332 34.7808 310.522 35.1627 309.818 35.3164C309.55 35.1418 309.379 35.0303 309.08 34.8337L307.292 35.2243C306.995 35.0287 306.823 34.9175 306.614 34.7803L304.288 35.2887C304.013 35.1304 303.752 34.9812 303.461 34.8143L299.937 35.5844C299.671 35.4228 299.413 35.2663 299.149 35.107L292.013 36.6665C291.846 36.5544 291.676 36.4413 291.384 36.2472L288.397 36.9C288.098 36.7034 287.927 36.5919 287.629 36.3951L284.65 37.0461C284.352 36.8519 284.182 36.7404 283.882 36.5438L280.905 37.1946C280.606 37.0006 280.433 36.8868 280.136 36.6925L277.157 37.3436C276.859 37.1493 276.687 37.0355 276.488 36.9057L274.745 37.2866C274.472 37.1264 274.214 36.9728 273.938 36.8105L272.746 37.071C272.595 36.9581 272.431 36.8355 272.307 36.7438C271.54 36.5103 270.899 36.9302 270.213 36.9586C270.043 36.8471 269.869 36.7349 269.571 36.5393L267.189 37.06C266.89 36.8647 266.719 36.7519 266.399 36.5447C265.942 36.6446 265.261 37.0297 264.808 36.8392C264.028 36.5144 263.291 36.6972 262.546 36.5938C261.896 36.5039 261.274 36.1909 260.512 35.9343L258.295 36.4189C258.026 36.2565 257.767 36.1003 257.497 35.9395L256.347 36.1909C256.067 36.027 255.808 35.8746 255.57 35.7355C254.965 35.8282 254.372 36.2103 253.795 35.5516L251.616 36.0279C250.76 35.7688 250.032 35.5484 249.112 35.2677L247.557 35.6076C247.282 35.4493 247.023 35.2998 246.737 35.1344L245.002 35.5136C244.729 35.3508 244.471 35.1943 244.204 35.0343L243.03 35.2908C242.852 35.1742 242.68 35.0629 242.373 34.8626C241.817 34.9541 241.142 35.0634 240.466 35.1742C240.295 35.0614 240.123 34.9489 239.792 34.7332C239.347 34.8306 238.772 35.0422 238.192 35.0585C237.641 35.0738 237.18 34.5631 236.509 34.7699C236.123 34.8911 235.597 34.4723 235.15 34.5059C234.552 34.5492 233.97 34.7842 233.465 34.2246L232.292 34.4808C232.025 34.3182 231.766 34.1604 231.501 34.0001L230.337 34.2543C230.067 34.0922 229.808 33.9373 229.538 33.7753L227.833 34.1479C227.51 33.9865 227.187 33.6832 226.989 33.751C226.269 33.9929 225.666 33.6634 225.004 33.5624C224.452 33.4784 223.922 33.6926 223.298 33.3799C222.857 33.1597 222.142 33.5111 221.473 33.6189C221.282 33.512 221.022 33.3654 220.728 33.1978L218.4 33.7065C218.132 33.5439 217.874 33.3861 217.608 33.2258L213.449 34.1348C213.307 34.6899 213.164 35.2466 213.002 35.8772C213.134 35.9792 213.36 36.1483 213.584 36.3177C213.476 36.4478 213.357 36.5856 213.239 36.7248C212.622 37.1461 211.835 35.6053 211.285 36.8775C211.467 36.9974 211.638 37.1087 211.887 37.27L212.352 39.3985C212.83 39.9954 213.185 40.4405 213.63 40.9944C213.784 40.9921 214.067 40.9902 214.445 40.9882C214.553 41.1762 214.693 41.4253 214.912 41.8087C215.525 42.2385 216.266 42.7601 217.01 43.2828C217.056 44.3877 218.61 44.1642 218.694 45.2457C218.701 45.3235 218.79 45.4187 218.863 45.4682C219.631 45.9786 220.417 46.4634 221.172 46.9916C221.891 47.4951 222.027 48.6651 223.017 48.6082C223.452 49.3417 223.268 50.243 224.149 50.4806C223.672 51.2208 223.935 52.2442 223.242 52.891L220.99 54.0956C220.747 54.3889 220.503 54.6838 220.19 55.0594C219.784 54.8532 219.445 54.6804 219.084 54.4985L213.771 55.6597C213.583 55.5357 213.412 55.4229 213.113 55.2289L210.731 55.7496C210.433 55.5527 210.26 55.4418 209.949 55.2381C209.584 55.3178 209.081 55.3623 208.629 55.5417C208.054 55.7724 207.737 55.1278 207.252 55.1997C206.751 55.2725 206.259 55.4086 205.714 55.5276C205.488 55.4037 205.227 55.26 204.918 55.0916L203.203 55.4663C202.932 55.3045 202.674 55.1522 202.396 54.9877L201.238 55.2407C201.059 55.1296 200.887 55.0226 200.688 54.8982C200 54.6856 199.358 55.1084 198.673 55.1381C198.501 55.0255 198.329 54.9143 198.151 54.7964C197.532 54.5495 197.007 55.09 196.148 54.8586C195.478 54.2094 194.506 54.9896 193.559 54.9115C192.905 53.9421 191.71 55.4274 191.167 54.2863L189.314 54.6914C189.04 54.5302 188.78 54.3808 188.497 54.2161L187.351 54.4666C187.082 54.3043 186.821 54.1499 186.553 53.9886L184.335 54.4734C183.573 54.2155 182.952 53.9077 182.302 53.8123C181.558 53.7047 180.811 53.9403 180.039 53.5562C179.68 53.378 179.071 53.7241 178.519 53.8448C178.298 53.7266 178.038 53.5868 177.717 53.4155L176.017 53.787C175.742 53.6274 175.482 53.478 175.195 53.3128L173.46 53.692C173.188 53.529 172.93 53.3724 172.665 53.2134L171.503 53.4674C171.228 53.3036 170.97 53.1499 170.699 52.9879L169.575 53.2336C169.269 53.0643 169.009 52.922 168.722 52.7636C167.507 53.5165 166.239 52.5324 165.003 52.8653C164.24 52.1395 163.479 52.7972 162.669 52.8526C162.445 52.723 162.186 52.5762 161.893 52.4096L160.752 52.6589C160.484 52.4963 160.226 52.3398 159.961 52.1795L158.783 52.4369C158.609 52.322 158.437 52.2095 158.139 52.0139L156.352 52.4045C156.053 52.2092 155.881 52.0967 155.581 51.9014L153.199 52.4221C152.901 52.2265 152.729 52.114 152.431 51.9184L150.049 52.4391C149.749 52.2439 149.577 52.1313 149.364 51.9923L147.561 52.3863C147.438 52.5567 147.262 52.797 147.061 53.0744L145.898 53.3286C145.211 54.4505 144.518 55.579 143.822 56.7152C144.432 57.3749 142.665 58.176 143.91 58.8224C144.249 58.6364 144.218 58.0564 144.723 58.0537C144.939 57.3555 144.939 57.3555 145.787 57.4487C145.707 58.1457 145.082 57.8592 144.723 58.0537C144.979 58.3376 145.238 58.6209 145.562 58.9787L145.813 60.1315C146.081 60.1618 146.359 60.1966 146.842 60.2534C147.174 60.6994 147.62 61.2898 148.051 61.8902C148.093 61.9494 148.048 62.0752 148.039 62.2668C147.827 62.3705 147.574 62.4926 147.219 62.6645C147.186 62.834 147.133 63.1078 147.037 63.5954C147.465 63.7871 147.913 63.9881 148.488 64.2459C149.139 64.0013 149.576 63.0105 150.606 63.1088C150.657 62.7033 150.705 62.3298 150.752 61.9523C150.817 61.9232 150.911 61.8506 150.946 61.873C152.737 63.0348 154.524 64.2043 156.303 65.3822C156.364 65.4222 156.352 65.5749 156.374 65.6752C157.278 65.3766 157.984 65.5908 158.426 66.4986L159.617 66.2384C159.311 65.5081 158.558 65.3398 157.999 64.9378C157.532 64.599 157.084 64.0664 156.383 64.382C155.613 63.8776 154.841 63.3706 154.069 62.8678C152.781 62.029 151.494 61.1925 150.598 60.609C149.674 59.4339 149.027 58.6116 148.228 57.5962C148.579 57.2996 148.969 56.9716 149.716 56.3387L150.859 56.089C151.045 56.2107 151.215 56.3223 151.515 56.5188L153.899 55.9979C154.197 56.1934 154.368 56.3046 154.612 56.4656L156.775 55.993C157.626 56.2533 158.354 56.4762 159.267 56.7558L160.831 56.4139C161.104 56.5754 161.363 56.7277 161.622 56.8797C161.787 56.6446 161.957 56.4012 162.131 56.1489C163.421 56.1495 164.568 56.6194 165.67 57.4718C166.013 57.1129 166.274 56.8389 166.572 56.5323C166.757 56.6378 167.004 56.7804 167.271 56.9323L169.02 56.55C169.282 56.7043 169.536 56.8549 169.789 57.0042C169.902 56.8254 170.011 56.6513 170.17 56.3982C171.288 56.704 172.434 57.017 173.983 57.4414L176.144 56.9691C176.325 57.3268 176.455 57.585 176.585 57.8432C177.314 58.2311 177.929 57.5494 178.871 57.7858C178.802 57.7339 178.966 57.8579 179.209 58.0395C180.065 58.1527 180.887 57.6194 181.8 57.6315C182.019 57.7528 182.265 57.8889 182.506 58.0246C182.635 57.8188 182.746 57.6445 182.863 57.4593C183.493 57.4416 183.792 58.0982 184.706 58.1879L186.712 57.7494C186.984 57.9096 187.245 58.063 187.52 58.2265L190.494 57.5765C191.161 58.0273 191.838 58.4866 192.558 58.9762L195.475 58.3388C195.769 58.486 196.03 58.6174 196.39 58.7993C196.964 58.7012 197.638 58.5851 198.225 58.4842C198.494 58.6601 198.666 58.7727 198.867 58.9048L201.574 58.3132C202.883 58.6632 203.983 58.9577 204.379 59.0637C205.575 59.5309 206.036 59.2269 206.517 59.1572C207.02 59.0829 207.512 58.9481 208.003 58.8407C208.738 59.05 209.469 59.2601 210.295 59.4957C210.39 59.3739 210.554 59.1634 210.734 58.9303C211.172 58.8168 211.618 58.5419 212.128 58.7402C212.261 59.002 212.391 59.2602 212.52 59.5186C212.703 59.559 212.901 59.6646 213.069 59.6291C214.957 59.2328 216.841 58.8157 218.726 58.4024C218.985 58.5587 219.244 58.7136 219.5 58.8665C220.148 58.98 220.229 58.3114 220.585 58.059C220.832 58.1877 221.068 58.3122 221.301 58.432C221.444 58.2027 221.554 58.0287 221.743 57.7279L225.913 56.8166C226.103 56.513 226.211 56.3406 226.342 56.1332L228.06 55.7577C228.429 54.8638 229.737 54.9232 229.79 53.7705C229.854 53.1534 229.407 52.4226 230.091 51.824L229.151 47.5216C228.195 47.2459 227.806 46.2091 227.026 45.6303C226.201 45.0218 225.317 44.4972 224.46 43.9378C223.603 43.3759 222.703 42.8712 221.9 42.2387C221.054 41.5745 220.302 40.7905 219.361 39.9206C219.211 39.5399 219.316 39.1334 220.075 39.0493C220.29 39.1661 220.551 39.3071 220.865 39.4786L223.168 38.9753C223.443 39.1349 223.701 39.2859 223.983 39.4496L225.13 39.1988C225.401 39.3608 225.661 39.5168 225.931 39.6788L227.08 39.4277C227.362 39.5927 227.621 39.7434 227.856 39.8818C228.728 39.7664 232.737 40.2085 233.555 40.5169L235.136 40.1716C235.906 40.4168 236.57 40.5515 237.167 40.8359C237.822 41.1485 238.446 40.4703 239.174 41.0099C239.728 41.4212 240.612 40.8432 241.406 41.3191C241.905 41.6184 242.692 40.757 243.4 41.2534C244.114 41.7538 244.75 41.148 245.425 41.1287C246.054 41.4894 246.709 41.5811 247.421 41.3244C247.665 41.4663 247.923 41.616 248.207 41.7804L249.351 41.5305C249.623 41.6935 249.882 41.8498 250.15 42.0108L251.917 41.6248C252.097 41.7424 252.267 41.8539 252.458 41.9787C253.158 42.1341 253.798 41.8277 254.431 41.6554C254.611 41.4207 254.775 41.2075 255.021 40.8891C255.187 41.2622 255.303 41.5248 255.452 41.8622C255.721 42.0339 256.067 42.2545 256.454 42.5016L258.177 42.1249C258.451 42.2848 258.711 42.4356 258.995 42.6L260.139 42.35C260.41 42.5131 260.67 42.6693 260.938 42.8303L262.705 42.4443C262.883 42.5609 263.055 42.6722 263.35 42.867C263.718 42.8178 264.196 42.7557 264.644 42.6959C264.926 42.8499 265.187 42.9923 265.356 43.085C266.047 42.983 266.764 42.642 267.202 42.8657C267.833 43.1906 268.371 43.1943 268.911 42.9645C269.57 42.684 270.035 43.3044 270.589 43.2352C271.19 43.1596 271.769 42.9595 272.271 43.5102L274.034 43.125C274.306 43.2894 274.565 43.4456 274.832 43.6057L276.007 43.3489C276.185 43.4642 276.356 43.577 276.655 43.7736L279.038 43.2529C279.337 43.4482 279.509 43.5607 279.807 43.7563L282.189 43.2356C282.49 43.4306 282.661 43.5434 282.96 43.7387L285.939 43.0876C286.239 43.2842 286.409 43.3957 286.619 43.5326L290.73 42.6342C291.007 42.7919 291.266 42.9387 291.558 43.1056L293.294 42.7262C293.562 42.8888 293.821 43.0463 294.086 43.2069L298.241 42.2987C298.414 42.411 298.585 42.5251 298.757 42.6364C298.845 42.6785 298.944 42.7701 299.021 42.7533C301.2 42.2867 303.376 41.8097 305.519 41.3414C305.734 41.4814 305.905 41.5942 306.161 41.762L309.245 41.0879C309.442 40.8362 309.623 40.6028 309.869 40.2856C310.317 40.4346 310.764 40.5841 311.351 40.7805C311.568 40.5476 311.825 40.2689 312.161 39.9075L313.254 39.6687C313.476 39.8044 313.735 39.9606 314.001 40.1235L318.743 39.0873C319.007 39.2465 319.265 39.4031 319.518 39.5565C319.967 39.348 320.566 39.5499 320.882 38.9676C320.66 38.7992 320.435 38.6301 320.17 38.43C320.574 37.8681 320.986 37.2936 321.409 36.7057C321.806 37.2058 322.266 37.785 322.729 38.3675C322.56 38.6938 322.424 38.9583 322.281 39.2297C322.562 39.6583 322.904 39.4621 323.237 39.3128C323.593 38.7916 323.161 38.3222 323.162 37.8308C323.308 37.5721 323.453 37.314 323.61 37.034C323.176 36.9269 322.749 36.8249 322.281 36.7117C322.832 36.0099 323.628 36.2222 324.311 35.9527C324.69 36.4321 325.079 36.9245 325.468 37.4181C325.127 37.636 324.81 37.8376 324.456 38.0664C325.247 38.3032 325.264 38.2911 326.207 38.1723C326.319 38.4073 326.444 38.6666 326.608 39.0115C327.015 39.3265 327.412 39.2603 327.705 38.7007C327.531 38.5874 327.36 38.4746 327.056 38.2762C326.981 38.0142 326.87 37.6359 326.717 37.1137C326.537 36.9456 326.256 36.6836 325.968 36.4162C325.897 36.01 325.795 35.5874 326.397 35.5063Z" fill="url(#paint1_linear_526_5357)"/>
<path d="M175.307 77.6518C175.37 77.5534 175.421 77.4714 175.472 77.3891C175.568 77.5101 175.685 77.6197 175.747 77.7548C175.769 77.8034 175.656 77.9139 175.605 77.9961C175.503 77.8792 175.404 77.7643 175.307 77.6518ZM181.929 85.5112L182.818 85.3168C183.25 84.8389 182.843 84.3547 182.82 83.8247C182.611 83.6587 182.38 83.4758 182.146 83.2922C182.351 82.5911 182.562 81.8733 182.781 81.1254C182.145 80.6816 181.51 81.2777 180.838 81.3004C179.613 80.876 178.806 79.9593 178.114 78.9053C178.224 78.7339 178.332 78.5602 178.46 78.3563C178.239 78.1889 178.015 78.0195 177.782 77.8437C177.922 77.6016 178.067 77.3474 178.213 77.093L177.95 75.8855C177.24 75.5356 176.694 74.8701 175.771 74.672C175.524 74.9675 175.285 75.2573 175.048 75.5424C174.805 75.3977 174.548 75.2451 174.303 75.1006C174.093 75.1629 173.904 75.2207 173.641 75.2999C173.625 75.5573 173.607 75.8411 173.588 76.1181C173.87 76.3213 174.114 76.4958 174.388 76.6952C174.03 76.9715 173.672 77.2449 173.126 77.6657C175.437 79.1765 177.644 80.6212 179.912 82.1046C179.914 82.1696 179.922 82.363 179.931 82.559C179.376 83.3817 178.899 82.6467 178.395 82.4524L176.643 82.8353C176.452 82.7093 176.281 82.5964 176.051 82.4475C175.326 82.4722 174.562 82.5274 173.912 83.0638C174.483 83.6868 175.217 83.8323 176.19 84.0331C175.463 84.3217 174.938 84.5292 174.364 84.7583C174.403 85.0555 174.441 85.3339 174.486 85.6856C174.803 85.697 175.084 85.7093 175.348 85.721C175.544 85.4299 175.712 85.1803 175.884 84.9256L176.766 84.7329C176.794 84.548 176.825 84.3639 176.864 84.126L180.034 83.433C180.234 83.7606 180.429 84.0783 180.639 84.4242C180.881 84.2267 181.119 84.0299 181.36 83.8298C181.837 84.3056 181.734 84.9587 181.929 85.5112Z" fill="url(#paint2_linear_526_5357)"/>
<path d="M125.643 74.9338C125.379 74.7732 125.121 74.6167 124.894 74.4779L123.693 74.7404C123.524 75.4051 123.36 76.0511 123.203 76.6805C123.615 77.9128 124.87 77.5349 125.671 78.0217C126.007 78.2255 126.623 77.9789 127.052 77.6872C126.915 76.9692 126.475 77.4051 126.181 77.3439C126.059 77.3173 125.971 77.1196 125.759 76.8752C126.739 76.511 127.752 76.4629 128.65 76.137C128.211 74.9977 126.942 75.6503 126.491 74.7582C126.456 74.6879 125.931 74.8709 125.643 74.9338Z" fill="url(#paint3_linear_526_5357)"/>
<path d="M106.203 70.2843C105.664 70.4704 105.037 70.3796 104.582 70.8119C104.58 70.8943 104.548 71.0104 104.58 71.0321C105.147 71.4324 105.72 71.8215 106.248 72.1799L107.562 71.8926C107.996 72.1977 108.48 72.5395 108.941 72.8632L109.844 72.6659C109.581 71.9195 109.686 71.0598 109.126 70.2815C108.923 70.5291 108.766 70.7247 108.485 71.0686C107.869 70.9166 107.217 71.7688 106.4 71.1857L106.203 70.2843Z" fill="url(#paint4_linear_526_5357)"/>
<path d="M142.705 80.6475C142.13 80.8442 141.674 80.9985 141.15 81.1757C141.17 81.4716 141.189 81.7553 141.209 82.0241C141.8 82.1841 142.348 82.3347 143.086 82.5349C143.343 82.4776 143.854 82.4996 144.293 82.151C144.065 81.8569 143.872 81.6085 143.679 81.3585C144.011 81.1455 144.326 80.9442 144.621 80.7541C144.593 80.5038 144.571 80.3065 144.543 80.0656C143.963 79.8962 143.367 79.7222 142.682 79.5225C142.688 79.8365 142.693 80.1246 142.705 80.6475Z" fill="url(#paint5_linear_526_5357)"/>
<path d="M158.627 81.7061C158.52 81.5495 158.369 81.2412 158.312 81.2576C157.436 81.5133 156.666 80.2322 155.783 81.2317C155.232 80.7776 154.764 80.3913 154.397 80.0894L152.141 80.5825C152.244 80.736 152.324 80.9969 152.453 81.026C153.166 81.1883 153.895 81.2745 154.608 81.4354C154.737 81.4658 154.817 81.7267 154.92 81.8802L156.39 81.5591C156.646 81.7146 156.902 81.8717 157.157 82.0275L158.627 81.7061Z" fill="url(#paint6_linear_526_5357)"/>
<path d="M154.919 81.8808L153.386 82.2159C153.341 82.4617 153.29 82.7349 153.202 83.2059C153.893 83.5054 154.601 83.8119 155.283 84.1078C155.287 84.0196 155.298 83.7372 155.316 83.343C155.591 83.1287 155.951 82.8495 156.306 82.5725C156 81.9775 155.022 82.871 154.919 81.8808Z" fill="url(#paint7_linear_526_5357)"/>
<path d="M166.899 71.001L168.089 70.7408C167.443 69.7616 166.3 69.4722 165.518 68.7737C164.791 68.8016 164.532 69.1135 164.76 69.7787C165.488 70.1533 166.51 70.001 166.899 71.001Z" fill="url(#paint8_linear_526_5357)"/>
<path d="M139.654 77.8975C140.896 78.1105 142.007 78.7425 143.258 78.6998C143.323 78.6979 143.381 78.557 143.442 78.4808C143.11 77.5379 142.208 77.806 141.552 77.5658C140.957 77.3491 140.334 77.2112 139.635 77.0143C139.642 77.3254 139.647 77.6122 139.654 77.8975Z" fill="url(#paint9_linear_526_5357)"/>
<path d="M162.133 72.0426C162.264 72.7576 163.06 72.596 163.21 73.0369C164.204 73.0393 164.265 71.6843 165.243 71.9988L165.11 71.3918C164.76 71.2772 164.41 71.1642 164.048 71.0466C163.916 71.2433 163.752 71.4894 163.594 71.7232L162.133 72.0426Z" fill="url(#paint10_linear_526_5357)"/>
<path d="M170.463 82.9327C170.22 82.7812 169.968 82.6245 169.577 82.3825C169.588 82.8154 169.596 83.1644 169.604 83.4561C170.44 83.8385 171.042 83.2415 172.042 83.4324C172.211 83.5047 172.678 84.0932 173.255 83.4443C173.056 82.9159 172.551 82.8352 172.212 82.5504L170.463 82.9327Z" fill="url(#paint11_linear_526_5357)"/>
<path d="M175.548 87.5526C176.713 87.2625 177.602 87.1444 178.639 86.7842C178.09 86.4006 177.777 86.1797 177.432 85.9384C177.175 86.1815 176.921 86.424 176.679 86.6529C176.041 87.0079 175.636 85.8913 174.994 86.3947C174.919 86.452 174.868 86.5423 174.798 86.6286C174.812 87.1456 175.434 86.985 175.548 87.5526Z" fill="url(#paint12_linear_526_5357)"/>
<path d="M165.51 84.6506C164.54 85.0225 165.07 83.5731 164.259 83.7408C164.007 84.0115 164.283 84.4044 164.277 84.785C164.274 85.1543 164.151 85.5224 164.058 86.0094C164.24 86.1388 164.545 86.3546 164.867 86.5832C165.432 86.4775 165.325 85.7981 165.723 85.6236L165.51 84.6506Z" fill="url(#paint13_linear_526_5357)"/>
<path d="M156.504 66.2817L156.65 66.9513C157.407 67.3999 158.043 67.7741 158.667 68.1441C158.8 67.9377 159.01 67.6079 159.176 67.3478C158.915 67.0515 158.668 66.7749 158.424 66.4982L157.67 66.663C157.214 66.5142 156.86 66.3991 156.504 66.2817Z" fill="url(#paint14_linear_526_5357)"/>
<path d="M135.551 76.3189C134.888 75.4673 133.83 75.6044 132.968 75.2564C132.851 75.2083 132.639 75.409 132.429 75.5176C132.533 76.0885 133.142 76.0756 133.441 76.4074C134.138 75.8497 134.686 77.2093 135.385 76.5763C135.456 76.5115 135.495 76.4062 135.551 76.3189Z" fill="url(#paint15_linear_526_5357)"/>
<path d="M158.627 81.7059C158.648 81.801 158.647 81.965 158.693 81.9809C159.73 82.3315 160.771 82.6883 161.871 82.2691C161.778 81.6766 161.162 81.6802 160.777 81.2361L158.627 81.7059Z" fill="url(#paint16_linear_526_5357)"/>
<path d="M125.664 73.658C125.245 72.4776 123.981 72.919 123.228 72.3575C123.082 72.2503 122.715 72.4506 122.209 72.5611C122.567 72.8636 122.755 73.0109 122.931 73.1704C123.462 73.6534 124.27 73.2722 124.813 73.8222C124.928 73.9404 125.371 73.722 125.664 73.658Z" fill="url(#paint17_linear_526_5357)"/>
<path d="M128.312 74.3505C128.135 74.1476 127.981 73.9191 127.777 73.7536C127.566 73.5787 127.305 73.4664 127.096 73.3444L125.664 73.6572C125.767 73.8107 125.857 73.9739 125.973 74.1152C126.149 74.332 126.34 74.5331 126.525 74.7411L128.312 74.3505Z" fill="url(#paint18_linear_526_5357)"/>
<path d="M179.701 79.6424L180.293 79.5129C180.758 78.9227 180.33 78.3981 180.131 77.7659C179.88 77.7691 179.601 77.7727 179.336 77.7758C178.935 78.5351 179.08 79.1393 179.701 79.6424Z" fill="url(#paint19_linear_526_5357)"/>
<path d="M168.948 71.8247L168.005 72.0308C167.988 72.7223 168.759 72.9824 168.881 73.6545C169.151 73.6214 169.425 73.5875 169.66 73.558C169.747 73.4202 169.821 73.3399 169.852 73.2457C170.117 72.4086 169.003 72.4624 168.948 71.8247Z" fill="url(#paint20_linear_526_5357)"/>
<path d="M146.845 79.1967C146.183 78.6891 145.06 78.4159 144.36 78.6302C144.496 79.1642 145.04 79.2186 145.363 79.5207L146.845 79.1967Z" fill="url(#paint21_linear_526_5357)"/>
<path d="M168.951 71.8236L170.142 71.5634C169.699 70.6569 168.993 70.4414 168.089 70.7399C168.192 70.8934 168.283 71.0566 168.398 71.1979C168.574 71.4147 168.765 71.6158 168.951 71.8236Z" fill="url(#paint22_linear_526_5357)"/>
<path d="M165.241 71.9983C165.132 72.3538 165.024 72.709 164.91 73.0806C165.185 73.2606 165.517 73.4776 165.904 73.7314C166.362 73.088 165.87 72.4764 165.836 71.8682L165.241 71.9983Z" fill="url(#paint23_linear_526_5357)"/>
<path d="M128.309 74.3514C128.437 74.9499 129.061 74.9691 129.434 75.361C129.677 75.2835 129.94 75.2001 130.218 75.1107C130.067 74.5132 129.521 74.4603 129.2 74.1554C128.903 74.2216 128.607 74.2862 128.309 74.3514Z" fill="url(#paint24_linear_526_5357)"/>
<path d="M169.746 75.4633C169.666 75.1096 169.586 74.7558 169.475 74.2588C168.986 74.363 168.639 74.4361 168.289 74.5098C168.369 74.8648 168.448 75.2175 168.56 75.7143C169.05 75.6114 169.397 75.537 169.746 75.4633Z" fill="url(#paint25_linear_526_5357)"/>
<path d="M146.844 79.1973C146.972 79.7957 147.596 79.8163 147.969 80.2069C148.212 80.1294 148.475 80.0473 148.753 79.9579C148.602 79.3603 148.057 79.3075 147.735 79.0025L146.844 79.1973Z" fill="url(#paint26_linear_526_5357)"/>
<path d="M148.566 81.3628C148.693 81.9628 149.319 81.9818 149.691 82.3727C149.973 82.0217 150.246 81.6795 150.544 81.3072C149.693 80.9201 149.149 81.32 148.566 81.3628Z" fill="url(#paint27_linear_526_5357)"/>
<path d="M152.94 67.0832C152.715 66.4951 152.228 66.2972 151.559 66.0873C151.621 66.49 151.67 66.8218 151.736 67.2537C152.219 67.185 152.576 67.1341 152.94 67.0832Z" fill="url(#paint28_linear_526_5357)"/>
<path d="M161.901 82.4089C162.782 82.6723 162.782 82.6723 163.71 82.2305C163.068 81.6844 162.475 82.2603 161.901 82.4089Z" fill="url(#paint29_linear_526_5357)"/>
<path d="M182.102 85.432C181.372 85.7567 180.594 85.4805 180.243 86.2342C180.732 86.605 181.19 86.2919 181.624 86.1835C181.796 86.1404 181.89 85.7841 182.102 85.432Z" fill="url(#paint30_linear_526_5357)"/>
<path d="M165.513 84.6509C165.871 84.4551 166.497 84.743 166.577 84.0472C165.73 83.9524 165.73 83.9524 165.513 84.6509Z" fill="url(#paint31_linear_526_5357)"/>
<path d="M166.496 83.0442C166.767 83.0244 167.049 83.0393 167.306 82.9654C167.386 82.9423 167.425 82.6895 167.435 82.5358C167.437 82.4876 167.267 82.3693 167.202 82.3862C166.939 82.4546 166.685 82.5632 166.429 82.6562C166.451 82.785 166.473 82.9141 166.496 83.0442Z" fill="url(#paint32_linear_526_5357)"/>
<path d="M160.923 83.4288C160.349 83.138 160.013 83.1895 159.738 83.5951C160.128 84.1991 160.468 83.9404 160.923 83.4288Z" fill="url(#paint33_linear_526_5357)"/>
<path d="M152.341 84.3502C152.83 84.8957 152.83 84.8957 153.558 84.4554C153.197 83.8561 152.747 84.3788 152.341 84.3502Z" fill="url(#paint34_linear_526_5357)"/>
<path d="M152.342 84.3517C151.853 83.8075 151.853 83.8075 151.123 84.2468C151.486 84.8457 151.934 84.3233 152.342 84.3517Z" fill="url(#paint35_linear_526_5357)"/>
<path d="M148.369 83.3131C148.858 83.8573 148.858 83.8573 149.587 83.418C149.224 82.8177 148.776 83.3401 148.369 83.3131Z" fill="url(#paint36_linear_526_5357)"/>
<path d="M168.287 74.5106C167.798 73.9664 167.798 73.9664 167.069 74.407C167.431 75.0059 167.881 74.4833 168.287 74.5106Z" fill="url(#paint37_linear_526_5357)"/>
<path d="M172.768 73.5806C173.05 72.9976 172.996 72.6572 172.595 72.3735C172.004 72.7661 172.262 73.1138 172.768 73.5806Z" fill="url(#paint38_linear_526_5357)"/>
<path d="M166.899 71.0007L165.707 71.2612L165.84 71.8682C166.109 71.8093 166.427 71.8204 166.63 71.6695C166.793 71.5479 166.814 71.2308 166.899 71.0007Z" fill="url(#paint39_linear_526_5357)"/>
<path d="M155.558 69.08C155.838 68.4973 155.784 68.1569 155.384 67.8745C154.793 68.2658 155.05 68.6136 155.558 69.08Z" fill="url(#paint40_linear_526_5357)"/>
<path d="M176.763 84.733C177.251 85.2775 177.251 85.2775 177.98 84.8382C177.617 84.2379 177.169 84.7603 176.763 84.733Z" fill="url(#paint41_linear_526_5357)"/>
<path d="M173.059 84.4985C173.156 84.611 173.255 84.7272 173.355 84.8431C173.407 84.7609 173.52 84.6516 173.499 84.6015C173.436 84.4667 173.319 84.3571 173.223 84.2361C173.171 84.3184 173.121 84.4003 173.059 84.4985Z" fill="url(#paint42_linear_526_5357)"/>
<path d="M171.071 84.3883C170.923 84.3496 170.777 84.2873 170.629 84.2855C170.577 84.2859 170.527 84.4361 170.475 84.5184C170.623 84.5571 170.769 84.6194 170.917 84.6212C170.969 84.6208 171.019 84.4705 171.071 84.3883Z" fill="url(#paint43_linear_526_5357)"/>
<path d="M160.516 85.6506C160.578 85.5525 160.628 85.4705 160.68 85.3883C160.534 85.3493 160.386 85.2873 160.238 85.2855C160.187 85.2859 160.136 85.4361 160.085 85.5184C160.231 85.5642 160.374 85.6079 160.516 85.6506Z" fill="url(#paint44_linear_526_5357)"/>
<path d="M157.32 85.0972C157.627 85.3331 157.8 85.4686 157.974 85.6039C158.263 84.9839 157.811 85.1306 157.32 85.0972Z" fill="url(#paint45_linear_526_5357)"/>
<path d="M157.685 85.162C157.378 84.9261 157.204 84.7908 157.03 84.6556C156.742 85.2753 157.193 85.1289 157.685 85.162Z" fill="url(#paint46_linear_526_5357)"/>
<path d="M181.598 79.3196C181.488 79.4173 181.376 79.5168 181.262 79.6195C181.343 79.6728 181.452 79.7883 181.499 79.767C181.633 79.7037 181.741 79.5859 181.857 79.4894C181.776 79.4362 181.696 79.3827 181.598 79.3196Z" fill="url(#paint47_linear_526_5357)"/>
<path d="M157.405 83.2454C157.442 83.0954 157.503 82.9471 157.503 82.7982C157.502 82.7439 157.354 82.6916 157.273 82.6384C157.236 82.7883 157.176 82.9367 157.176 83.0868C157.176 83.1386 157.324 83.1921 157.405 83.2454Z" fill="url(#paint48_linear_526_5357)"/>
<path d="M148.551 83.3449C148.246 83.1087 148.071 82.9735 147.897 82.8382C147.609 83.4579 148.061 83.3115 148.551 83.3449Z" fill="url(#paint49_linear_526_5357)"/>
<path d="M152.406 82.2034C152.308 82.0912 152.209 81.9763 152.109 81.8591C152.057 81.9413 151.945 82.0518 151.966 82.1004C152.029 82.2355 152.145 82.3451 152.241 82.4661C152.293 82.3838 152.343 82.3018 152.406 82.2034Z" fill="url(#paint50_linear_526_5357)"/>
<path d="M145.59 82.4237C145.493 82.3111 145.393 82.1952 145.292 82.0793C145.241 82.1615 145.128 82.2708 145.15 82.3193C145.212 82.4557 145.329 82.5653 145.425 82.685C145.476 82.6027 145.527 82.5221 145.59 82.4237Z" fill="url(#paint51_linear_526_5357)"/>
<path d="M148.746 81.3957C148.441 81.1595 148.267 81.0242 148.092 80.889C147.805 81.5074 148.256 81.361 148.746 81.3957Z" fill="url(#paint52_linear_526_5357)"/>
<path d="M152.321 80.6143C152.014 80.3784 151.841 80.2429 151.667 80.1076C151.378 80.7263 151.83 80.5797 152.321 80.6143Z" fill="url(#paint53_linear_526_5357)"/>
<path d="M150.494 79.7632C150.384 79.8609 150.271 79.9607 150.156 80.0621C150.238 80.1153 150.347 80.2305 150.393 80.2096C150.527 80.1463 150.636 80.0282 150.753 79.9317C150.672 79.8785 150.592 79.8263 150.494 79.7632Z" fill="url(#paint54_linear_526_5357)"/>
<path d="M169.562 75.4312C169.868 75.6674 170.042 75.8026 170.216 75.9379C170.504 75.3182 170.053 75.4645 169.562 75.4312Z" fill="url(#paint55_linear_526_5357)"/>
<path d="M172.552 74.441C172.455 74.3776 172.375 74.3241 172.293 74.2709C172.257 74.4209 172.196 74.5692 172.195 74.7183C172.197 74.7711 172.345 74.8247 172.426 74.8779C172.469 74.7294 172.511 74.5838 172.552 74.441Z" fill="url(#paint56_linear_526_5357)"/>
<path d="M174.379 74.2244C174.282 74.1119 174.183 73.997 174.081 73.8801C174.03 73.9623 173.917 74.0728 173.939 74.1214C174.003 74.2562 174.118 74.3661 174.214 74.4871C174.266 74.4048 174.316 74.3228 174.379 74.2244Z" fill="url(#paint57_linear_526_5357)"/>
<path d="M141.719 79.5911C141.781 79.4929 141.831 79.411 141.883 79.3287C141.737 79.2897 141.589 79.2278 141.442 79.2259C141.39 79.2263 141.339 79.3766 141.288 79.4588C141.434 79.5033 141.577 79.547 141.719 79.5911Z" fill="url(#paint58_linear_526_5357)"/>
<path d="M325.235 39.1638C325.138 39.1005 325.058 39.0483 324.977 38.995C324.94 39.1437 324.88 39.292 324.878 39.4424C324.88 39.4952 325.028 39.5475 325.109 39.6007C325.152 39.4535 325.194 39.3066 325.235 39.1638Z" fill="url(#paint59_linear_526_5357)"/>
<path d="M135.091 80.0847C134.992 80.0216 134.913 79.9694 134.831 79.9162C134.794 80.0649 134.734 80.2145 134.734 80.3633C134.735 80.4164 134.883 80.47 134.964 80.5232C135.007 80.3747 135.05 80.2275 135.091 80.0847Z" fill="url(#paint60_linear_526_5357)"/>
<path d="M170.688 72.0068C170.993 72.2444 171.167 72.3796 171.342 72.5149C171.629 71.8952 171.178 72.0415 170.688 72.0068Z" fill="url(#paint61_linear_526_5357)"/>
<path d="M133.805 79.9139C133.708 79.8013 133.609 79.6865 133.508 79.5693C133.457 79.6515 133.344 79.7607 133.365 79.8109C133.428 79.9457 133.545 80.0553 133.641 80.1763C133.693 80.094 133.743 80.012 133.805 79.9139Z" fill="url(#paint62_linear_526_5357)"/>
<path d="M170.87 72.0405C170.794 71.6177 170.55 71.458 170.142 71.5636C170.218 71.9865 170.461 72.1461 170.87 72.0405Z" fill="url(#paint63_linear_526_5357)"/>
<path d="M328.417 37.6077C328.454 37.4577 328.514 37.3094 328.515 37.1606C328.514 37.1062 328.366 37.0539 328.285 37.0007C328.248 37.1507 328.187 37.299 328.187 37.4491C328.188 37.5009 328.336 37.5545 328.417 37.6077Z" fill="url(#paint64_linear_526_5357)"/>
<path d="M328.942 35.4078C328.71 35.7163 328.58 35.8936 328.448 36.0699C329.06 36.3673 328.912 35.9071 328.942 35.4078Z" fill="url(#paint65_linear_526_5357)"/>
<path d="M330.661 35.4361C330.563 35.373 330.483 35.3195 330.402 35.2663C330.365 35.4163 330.304 35.5646 330.304 35.7134C330.305 35.7678 330.453 35.8201 330.534 35.8733C330.577 35.7248 330.619 35.5791 330.661 35.4361Z" fill="url(#paint66_linear_526_5357)"/>
<path d="M134.504 77.9892C134.566 77.8911 134.617 77.8104 134.668 77.7281C134.522 77.6892 134.375 77.6272 134.227 77.6254C134.176 77.6255 134.125 77.776 134.073 77.8582C134.219 77.9027 134.364 77.9462 134.504 77.9892Z" fill="url(#paint67_linear_526_5357)"/>
<path d="M162.314 72.0759C162.007 71.8387 161.833 71.7034 161.659 71.5682C161.371 72.1879 161.822 72.0415 162.314 72.0759Z" fill="url(#paint68_linear_526_5357)"/>
<path d="M165.704 71.2615C165.661 70.9609 165.544 70.7054 165.204 70.8671C165.111 70.9106 165.137 71.2093 165.108 71.3916L165.704 71.2615Z" fill="url(#paint69_linear_526_5357)"/>
<path d="M326.215 35.4736C326.52 35.7099 326.695 35.8451 326.869 35.9804C327.157 35.362 326.706 35.5083 326.215 35.4736Z" fill="url(#paint70_linear_526_5357)"/>
<path d="M328.88 35.776C329.11 35.4678 329.243 35.2915 329.373 35.1155C328.762 34.8178 328.91 35.2767 328.88 35.776Z" fill="url(#paint71_linear_526_5357)"/>
<path d="M131.985 77.9045C132.047 77.8064 132.097 77.7245 132.149 77.6422C132.002 77.6032 131.855 77.5412 131.707 77.5394C131.657 77.5395 131.605 77.69 131.553 77.7723C131.7 77.8168 131.844 77.8602 131.985 77.9045Z" fill="url(#paint72_linear_526_5357)"/>
<path d="M120.387 76.0098C120.694 76.247 120.868 76.381 121.041 76.5165C121.33 75.8978 120.879 76.0442 120.387 76.0098Z" fill="url(#paint73_linear_526_5357)"/>
<path d="M120.751 76.0752C120.444 75.8393 120.27 75.704 120.097 75.5685C119.808 76.1872 120.259 76.0408 120.751 76.0752Z" fill="url(#paint74_linear_526_5357)"/>
<path d="M160.164 66.6807C160.47 66.9182 160.644 67.0534 160.818 67.1887C161.106 66.569 160.655 66.7154 160.164 66.6807Z" fill="url(#paint75_linear_526_5357)"/>
<path d="M119.012 75.655C119.074 75.5569 119.124 75.4749 119.176 75.3927C119.03 75.3537 118.882 75.2917 118.735 75.2899C118.684 75.29 118.632 75.4405 118.581 75.5228C118.727 75.5686 118.872 75.612 119.012 75.655Z" fill="url(#paint76_linear_526_5357)"/>
<path d="M153.477 67.5073C153.783 67.7433 153.956 67.8788 154.131 68.0141C154.419 67.3941 153.967 67.5407 153.477 67.5073Z" fill="url(#paint77_linear_526_5357)"/>
<path d="M159.614 66.238C159.69 66.6608 159.935 66.8202 160.344 66.7146C160.266 66.292 160.023 66.1324 159.614 66.238Z" fill="url(#paint78_linear_526_5357)"/>
<path d="M121.688 74.4352C121.798 74.3375 121.911 74.2377 122.025 74.1349C121.944 74.083 121.834 73.9678 121.788 73.9875C121.654 74.0508 121.545 74.1701 121.428 74.2653C121.51 74.3185 121.591 74.3718 121.688 74.4352Z" fill="url(#paint79_linear_526_5357)"/>
<path d="M153.659 67.5396C153.583 67.1167 153.339 66.9571 152.931 67.0627C153.007 67.4855 153.25 67.6452 153.659 67.5396Z" fill="url(#paint80_linear_526_5357)"/>
<path d="M156.37 65.675C156.075 65.7163 155.825 65.835 155.987 66.1805C156.029 66.275 156.324 66.2514 156.503 66.282L156.37 65.675Z" fill="url(#paint81_linear_526_5357)"/>
<path d="M118.746 73.0855C118.515 73.3941 118.384 73.5713 118.252 73.7476C118.865 74.0451 118.716 73.5848 118.746 73.0855Z" fill="url(#paint82_linear_526_5357)"/>
<path d="M154.27 65.4263C154.575 65.6625 154.749 65.7977 154.923 65.933C155.211 65.3146 154.76 65.461 154.27 65.4263Z" fill="url(#paint83_linear_526_5357)"/>
<path d="M118.715 73.2696C119.132 73.1963 119.287 72.9495 119.18 72.5335C118.764 72.6065 118.609 72.8533 118.715 73.2696Z" fill="url(#paint84_linear_526_5357)"/>
<path d="M121.395 72.6833C121.431 72.5333 121.491 72.3865 121.492 72.2361C121.491 72.1831 121.343 72.1308 121.262 72.0776C121.225 72.2275 121.165 72.3746 121.164 72.5263C121.165 72.5778 121.313 72.63 121.395 72.6833Z" fill="url(#paint85_linear_526_5357)"/>
<path d="M154.633 65.4924C154.327 65.2549 154.153 65.1196 153.979 64.9857C153.691 65.6041 154.142 65.4577 154.633 65.4924Z" fill="url(#paint86_linear_526_5357)"/>
<path d="M150.575 65.2615C150.478 65.1981 150.398 65.1459 150.317 65.0927C150.28 65.2414 150.22 65.391 150.218 65.5401C150.22 65.5929 150.368 65.6465 150.45 65.6997C150.492 65.5512 150.534 65.4042 150.575 65.2615Z" fill="url(#paint87_linear_526_5357)"/>
<path d="M152.863 64.3094C152.766 64.1969 152.668 64.082 152.567 63.9648C152.515 64.047 152.403 64.1562 152.423 64.2064C152.487 64.3412 152.604 64.4508 152.7 64.5718C152.751 64.4895 152.802 64.4075 152.863 64.3094Z" fill="url(#paint88_linear_526_5357)"/>
<path d="M99.1222 69.2908C99.1982 69.7137 99.4419 69.8733 99.8498 69.7664C99.7738 69.3436 99.5301 69.1839 99.1222 69.2908Z" fill="url(#paint89_linear_526_5357)"/>
<path d="M99.3058 69.3228C98.999 69.0869 98.8247 68.9516 98.6518 68.8161C98.3626 69.4348 98.8137 69.2884 99.3058 69.3228Z" fill="url(#paint90_linear_526_5357)"/>
<path d="M96.6479 68.9694C96.745 69.0328 96.8249 69.0863 96.9062 69.1395C96.943 68.9895 97.0034 68.8412 97.0049 68.6921C97.0027 68.638 96.8548 68.5857 96.7735 68.5325C96.7309 68.681 96.689 68.8266 96.6479 68.9694Z" fill="url(#paint91_linear_526_5357)"/>
<path d="M97.4667 64.5678C97.4229 64.2676 97.3057 64.0121 96.967 64.1734C96.8741 64.2169 96.8998 64.5157 96.8701 64.6982L97.4667 64.5678Z" fill="url(#paint92_linear_526_5357)"/>
<path d="M80.1552 64.9964C79.925 65.3047 79.7929 65.481 79.6622 65.6569C80.2732 65.9547 80.1264 65.4954 80.1552 64.9964Z" fill="url(#paint93_linear_526_5357)"/>
<defs>
<linearGradient id="paint0_linear_526_5357" x1="1.43706" y1="127.617" x2="132.791" y2="97.9663" gradientUnits="userSpaceOnUse">
<stop offset="0.197917" stop-color="#B16CEA"/>
<stop offset="0.557292" stop-color="#FF5E69"/>
<stop offset="0.828125" stop-color="#FF8A56"/>
<stop offset="1" stop-color="#FFA84B"/>
</linearGradient>
<linearGradient id="paint1_linear_526_5357" x1="131.23" y1="74.5367" x2="305.372" y2="32.2615" gradientUnits="userSpaceOnUse">
<stop offset="0.197917" stop-color="#B16CEA"/>
<stop offset="0.557292" stop-color="#FF5E69"/>
<stop offset="0.828125" stop-color="#FF8A56"/>
<stop offset="1" stop-color="#FFA84B"/>
</linearGradient>
<linearGradient id="paint2_linear_526_5357" x1="173.411" y1="84.3266" x2="182.036" y2="82.4162" gradientUnits="userSpaceOnUse">
<stop offset="0.197917" stop-color="#B16CEA"/>
<stop offset="0.557292" stop-color="#FF5E69"/>
<stop offset="0.828125" stop-color="#FF8A56"/>
<stop offset="1" stop-color="#FFA84B"/>
</linearGradient>
<linearGradient id="paint3_linear_526_5357" x1="122.983" y1="77.8051" x2="128.146" y2="76.6483" gradientUnits="userSpaceOnUse">
<stop offset="0.197917" stop-color="#B16CEA"/>
<stop offset="0.557292" stop-color="#FF5E69"/>
<stop offset="0.828125" stop-color="#FF8A56"/>
<stop offset="1" stop-color="#FFA84B"/>
</linearGradient>
<linearGradient id="paint4_linear_526_5357" x1="104.594" y1="73.0155" x2="109.165" y2="71.9896" gradientUnits="userSpaceOnUse">
<stop offset="0.197917" stop-color="#B16CEA"/>
<stop offset="0.557292" stop-color="#FF5E69"/>
<stop offset="0.828125" stop-color="#FF8A56"/>
<stop offset="1" stop-color="#FFA84B"/>
</linearGradient>
<linearGradient id="paint5_linear_526_5357" x1="140.944" y1="82.2536" x2="144.435" y2="81.4745" gradientUnits="userSpaceOnUse">
<stop offset="0.197917" stop-color="#B16CEA"/>
<stop offset="0.557292" stop-color="#FF5E69"/>
<stop offset="0.828125" stop-color="#FF8A56"/>
<stop offset="1" stop-color="#FFA84B"/>
</linearGradient>
<linearGradient id="paint6_linear_526_5357" x1="152.04" y1="82.5105" x2="157.825" y2="81.1917" gradientUnits="userSpaceOnUse">
<stop offset="0.197917" stop-color="#B16CEA"/>
<stop offset="0.557292" stop-color="#FF5E69"/>
<stop offset="0.828125" stop-color="#FF8A56"/>
<stop offset="1" stop-color="#FFA84B"/>
</linearGradient>
<linearGradient id="paint7_linear_526_5357" x1="153.106" y1="84.0069" x2="156.114" y2="83.3332" gradientUnits="userSpaceOnUse">
<stop offset="0.197917" stop-color="#B16CEA"/>
<stop offset="0.557292" stop-color="#FF5E69"/>
<stop offset="0.828125" stop-color="#FF8A56"/>
<stop offset="1" stop-color="#FFA84B"/>
</linearGradient>
<linearGradient id="paint8_linear_526_5357" x1="164.717" y1="70.8372" x2="167.623" y2="70.1887" gradientUnits="userSpaceOnUse">
<stop offset="0.197917" stop-color="#B16CEA"/>
<stop offset="0.557292" stop-color="#FF5E69"/>
<stop offset="0.828125" stop-color="#FF8A56"/>
<stop offset="1" stop-color="#FFA84B"/>
</linearGradient>
<linearGradient id="paint9_linear_526_5357" x1="139.564" y1="78.8884" x2="142.96" y2="78.127" gradientUnits="userSpaceOnUse">
<stop offset="0.197917" stop-color="#B16CEA"/>
<stop offset="0.557292" stop-color="#FF5E69"/>
<stop offset="0.828125" stop-color="#FF8A56"/>
<stop offset="1" stop-color="#FFA84B"/>
</linearGradient>
<linearGradient id="paint10_linear_526_5357" x1="162.049" y1="72.8572" x2="164.943" y2="72.2058" gradientUnits="userSpaceOnUse">
<stop offset="0.197917" stop-color="#B16CEA"/>
<stop offset="0.557292" stop-color="#FF5E69"/>
<stop offset="0.828125" stop-color="#FF8A56"/>
<stop offset="1" stop-color="#FFA84B"/>
</linearGradient>
<linearGradient id="paint11_linear_526_5357" x1="169.409" y1="83.9634" x2="172.798" y2="83.1998" gradientUnits="userSpaceOnUse">
<stop offset="0.197917" stop-color="#B16CEA"/>
<stop offset="0.557292" stop-color="#FF5E69"/>
<stop offset="0.828125" stop-color="#FF8A56"/>
<stop offset="1" stop-color="#FFA84B"/>
</linearGradient>
<linearGradient id="paint12_linear_526_5357" x1="174.641" y1="87.4139" x2="178.177" y2="86.6026" gradientUnits="userSpaceOnUse">
<stop offset="0.197917" stop-color="#B16CEA"/>
<stop offset="0.557292" stop-color="#FF5E69"/>
<stop offset="0.828125" stop-color="#FF8A56"/>
<stop offset="1" stop-color="#FFA84B"/>
</linearGradient>
<linearGradient id="paint13_linear_526_5357" x1="163.92" y1="86.0467" x2="165.544" y2="85.6881" gradientUnits="userSpaceOnUse">
<stop offset="0.197917" stop-color="#B16CEA"/>
<stop offset="0.557292" stop-color="#FF5E69"/>
<stop offset="0.828125" stop-color="#FF8A56"/>
<stop offset="1" stop-color="#FFA84B"/>
</linearGradient>
<linearGradient id="paint14_linear_526_5357" x1="156.675" y1="67.9958" x2="158.938" y2="67.4921" gradientUnits="userSpaceOnUse">
<stop offset="0.197917" stop-color="#B16CEA"/>
<stop offset="0.557292" stop-color="#FF5E69"/>
<stop offset="0.828125" stop-color="#FF8A56"/>
<stop offset="1" stop-color="#FFA84B"/>
</linearGradient>
<linearGradient id="paint15_linear_526_5357" x1="132.467" y1="76.82" x2="135.201" y2="76.2068" gradientUnits="userSpaceOnUse">
<stop offset="0.197917" stop-color="#B16CEA"/>
<stop offset="0.557292" stop-color="#FF5E69"/>
<stop offset="0.828125" stop-color="#FF8A56"/>
<stop offset="1" stop-color="#FFA84B"/>
</linearGradient>
<linearGradient id="paint16_linear_526_5357" x1="158.567" y1="82.6977" x2="161.474" y2="82.0355" gradientUnits="userSpaceOnUse">
<stop offset="0.197917" stop-color="#B16CEA"/>
<stop offset="0.557292" stop-color="#FF5E69"/>
<stop offset="0.828125" stop-color="#FF8A56"/>
<stop offset="1" stop-color="#FFA84B"/>
</linearGradient>
<linearGradient id="paint17_linear_526_5357" x1="122.247" y1="73.9658" x2="125.23" y2="73.2951" gradientUnits="userSpaceOnUse">
<stop offset="0.197917" stop-color="#B16CEA"/>
<stop offset="0.557292" stop-color="#FF5E69"/>
<stop offset="0.828125" stop-color="#FF8A56"/>
<stop offset="1" stop-color="#FFA84B"/>
</linearGradient>
<linearGradient id="paint18_linear_526_5357" x1="125.664" y1="74.6113" x2="127.979" y2="74.088" gradientUnits="userSpaceOnUse">
<stop offset="0.197917" stop-color="#B16CEA"/>
<stop offset="0.557292" stop-color="#FF5E69"/>
<stop offset="0.828125" stop-color="#FF8A56"/>
<stop offset="1" stop-color="#FFA84B"/>
</linearGradient>
<linearGradient id="paint19_linear_526_5357" x1="179.126" y1="79.2816" x2="180.388" y2="79.0023" gradientUnits="userSpaceOnUse">
<stop offset="0.197917" stop-color="#B16CEA"/>
<stop offset="0.557292" stop-color="#FF5E69"/>
<stop offset="0.828125" stop-color="#FF8A56"/>
<stop offset="1" stop-color="#FFA84B"/>
</linearGradient>
<linearGradient id="paint20_linear_526_5357" x1="168.139" y1="73.4181" x2="169.729" y2="73.0651" gradientUnits="userSpaceOnUse">
<stop offset="0.197917" stop-color="#B16CEA"/>
<stop offset="0.557292" stop-color="#FF5E69"/>
<stop offset="0.828125" stop-color="#FF8A56"/>
<stop offset="1" stop-color="#FFA84B"/>
</linearGradient>
<linearGradient id="paint21_linear_526_5357" x1="144.345" y1="79.4645" x2="146.534" y2="78.9683" gradientUnits="userSpaceOnUse">
<stop offset="0.197917" stop-color="#B16CEA"/>
<stop offset="0.557292" stop-color="#FF5E69"/>
<stop offset="0.828125" stop-color="#FF8A56"/>
<stop offset="1" stop-color="#FFA84B"/>
</linearGradient>
<linearGradient id="paint22_linear_526_5357" x1="168.138" y1="71.6793" x2="169.875" y2="71.29" gradientUnits="userSpaceOnUse">
<stop offset="0.197917" stop-color="#B16CEA"/>
<stop offset="0.557292" stop-color="#FF5E69"/>
<stop offset="0.828125" stop-color="#FF8A56"/>
<stop offset="1" stop-color="#FFA84B"/>
</linearGradient>
<linearGradient id="paint23_linear_526_5357" x1="164.897" y1="73.4821" x2="166.019" y2="73.234" gradientUnits="userSpaceOnUse">
<stop offset="0.197917" stop-color="#B16CEA"/>
<stop offset="0.557292" stop-color="#FF5E69"/>
<stop offset="0.828125" stop-color="#FF8A56"/>
<stop offset="1" stop-color="#FFA84B"/>
</linearGradient>
<linearGradient id="paint24_linear_526_5357" x1="128.366" y1="75.2803" x2="129.983" y2="74.9183" gradientUnits="userSpaceOnUse">
<stop offset="0.197917" stop-color="#B16CEA"/>
<stop offset="0.557292" stop-color="#FF5E69"/>
<stop offset="0.828125" stop-color="#FF8A56"/>
<stop offset="1" stop-color="#FFA84B"/>
</linearGradient>
<linearGradient id="paint25_linear_526_5357" x1="168.388" y1="75.4421" x2="169.547" y2="75.1844" gradientUnits="userSpaceOnUse">
<stop offset="0.197917" stop-color="#B16CEA"/>
<stop offset="0.557292" stop-color="#FF5E69"/>
<stop offset="0.828125" stop-color="#FF8A56"/>
<stop offset="1" stop-color="#FFA84B"/>
</linearGradient>
<linearGradient id="paint26_linear_526_5357" x1="146.901" y1="80.1265" x2="148.518" y2="79.7645" gradientUnits="userSpaceOnUse">
<stop offset="0.197917" stop-color="#B16CEA"/>
<stop offset="0.557292" stop-color="#FF5E69"/>
<stop offset="0.828125" stop-color="#FF8A56"/>
<stop offset="1" stop-color="#FFA84B"/>
</linearGradient>
<linearGradient id="paint27_linear_526_5357" x1="148.604" y1="82.2963" x2="150.45" y2="81.8817" gradientUnits="userSpaceOnUse">
<stop offset="0.197917" stop-color="#B16CEA"/>
<stop offset="0.557292" stop-color="#FF5E69"/>
<stop offset="0.828125" stop-color="#FF8A56"/>
<stop offset="1" stop-color="#FFA84B"/>
</linearGradient>
<linearGradient id="paint28_linear_526_5357" x1="151.588" y1="67.0543" x2="152.741" y2="66.7981" gradientUnits="userSpaceOnUse">
<stop offset="0.197917" stop-color="#B16CEA"/>
<stop offset="0.557292" stop-color="#FF5E69"/>
<stop offset="0.828125" stop-color="#FF8A56"/>
<stop offset="1" stop-color="#FFA84B"/>
</linearGradient>
<linearGradient id="paint29_linear_526_5357" x1="161.804" y1="82.6708" x2="163.515" y2="82.2743" gradientUnits="userSpaceOnUse">
<stop offset="0.197917" stop-color="#B16CEA"/>
<stop offset="0.557292" stop-color="#FF5E69"/>
<stop offset="0.828125" stop-color="#FF8A56"/>
<stop offset="1" stop-color="#FFA84B"/>
</linearGradient>
<linearGradient id="paint30_linear_526_5357" x1="180.108" y1="86.3972" x2="181.994" y2="85.9643" gradientUnits="userSpaceOnUse">
<stop offset="0.197917" stop-color="#B16CEA"/>
<stop offset="0.557292" stop-color="#FF5E69"/>
<stop offset="0.828125" stop-color="#FF8A56"/>
<stop offset="1" stop-color="#FFA84B"/>
</linearGradient>
<linearGradient id="paint31_linear_526_5357" x1="165.393" y1="84.5588" x2="166.501" y2="84.3077" gradientUnits="userSpaceOnUse">
<stop offset="0.197917" stop-color="#B16CEA"/>
<stop offset="0.557292" stop-color="#FF5E69"/>
<stop offset="0.828125" stop-color="#FF8A56"/>
<stop offset="1" stop-color="#FFA84B"/>
</linearGradient>
<linearGradient id="paint32_linear_526_5357" x1="166.401" y1="83.0146" x2="167.377" y2="82.7949" gradientUnits="userSpaceOnUse">
<stop offset="0.197917" stop-color="#B16CEA"/>
<stop offset="0.557292" stop-color="#FF5E69"/>
<stop offset="0.828125" stop-color="#FF8A56"/>
<stop offset="1" stop-color="#FFA84B"/>
</linearGradient>
<linearGradient id="paint33_linear_526_5357" x1="159.7" y1="83.8883" x2="160.833" y2="83.6331" gradientUnits="userSpaceOnUse">
<stop offset="0.197917" stop-color="#B16CEA"/>
<stop offset="0.557292" stop-color="#FF5E69"/>
<stop offset="0.828125" stop-color="#FF8A56"/>
<stop offset="1" stop-color="#FFA84B"/>
</linearGradient>
<linearGradient id="paint34_linear_526_5357" x1="152.331" y1="84.7587" x2="153.438" y2="84.5079" gradientUnits="userSpaceOnUse">
<stop offset="0.197917" stop-color="#B16CEA"/>
<stop offset="0.557292" stop-color="#FF5E69"/>
<stop offset="0.828125" stop-color="#FF8A56"/>
<stop offset="1" stop-color="#FFA84B"/>
</linearGradient>
<linearGradient id="paint35_linear_526_5357" x1="151.08" y1="84.509" x2="152.189" y2="84.2579" gradientUnits="userSpaceOnUse">
<stop offset="0.197917" stop-color="#B16CEA"/>
<stop offset="0.557292" stop-color="#FF5E69"/>
<stop offset="0.828125" stop-color="#FF8A56"/>
<stop offset="1" stop-color="#FFA84B"/>
</linearGradient>
<linearGradient id="paint36_linear_526_5357" x1="148.358" y1="83.7206" x2="149.466" y2="83.4695" gradientUnits="userSpaceOnUse">
<stop offset="0.197917" stop-color="#B16CEA"/>
<stop offset="0.557292" stop-color="#FF5E69"/>
<stop offset="0.828125" stop-color="#FF8A56"/>
<stop offset="1" stop-color="#FFA84B"/>
</linearGradient>
<linearGradient id="paint37_linear_526_5357" x1="167.026" y1="74.6688" x2="168.134" y2="74.4177" gradientUnits="userSpaceOnUse">
<stop offset="0.197917" stop-color="#B16CEA"/>
<stop offset="0.557292" stop-color="#FF5E69"/>
<stop offset="0.828125" stop-color="#FF8A56"/>
<stop offset="1" stop-color="#FFA84B"/>
</linearGradient>
<linearGradient id="paint38_linear_526_5357" x1="172.304" y1="73.3707" x2="172.943" y2="73.2298" gradientUnits="userSpaceOnUse">
<stop offset="0.197917" stop-color="#B16CEA"/>
<stop offset="0.557292" stop-color="#FF5E69"/>
<stop offset="0.828125" stop-color="#FF8A56"/>
<stop offset="1" stop-color="#FFA84B"/>
</linearGradient>
<linearGradient id="paint39_linear_526_5357" x1="165.711" y1="71.7592" x2="166.869" y2="71.4977" gradientUnits="userSpaceOnUse">
<stop offset="0.197917" stop-color="#B16CEA"/>
<stop offset="0.557292" stop-color="#FF5E69"/>
<stop offset="0.828125" stop-color="#FF8A56"/>
<stop offset="1" stop-color="#FFA84B"/>
</linearGradient>
<linearGradient id="paint40_linear_526_5357" x1="155.093" y1="68.8707" x2="155.732" y2="68.7298" gradientUnits="userSpaceOnUse">
<stop offset="0.197917" stop-color="#B16CEA"/>
<stop offset="0.557292" stop-color="#FF5E69"/>
<stop offset="0.828125" stop-color="#FF8A56"/>
<stop offset="1" stop-color="#FFA84B"/>
</linearGradient>
<linearGradient id="paint41_linear_526_5357" x1="176.752" y1="85.1405" x2="177.86" y2="84.8897" gradientUnits="userSpaceOnUse">
<stop offset="0.197917" stop-color="#B16CEA"/>
<stop offset="0.557292" stop-color="#FF5E69"/>
<stop offset="0.828125" stop-color="#FF8A56"/>
<stop offset="1" stop-color="#FFA84B"/>
</linearGradient>
<linearGradient id="paint42_linear_526_5357" x1="173.078" y1="84.7448" x2="173.466" y2="84.659" gradientUnits="userSpaceOnUse">
<stop offset="0.197917" stop-color="#B16CEA"/>
<stop offset="0.557292" stop-color="#FF5E69"/>
<stop offset="0.828125" stop-color="#FF8A56"/>
<stop offset="1" stop-color="#FFA84B"/>
</linearGradient>
<linearGradient id="paint43_linear_526_5357" x1="170.446" y1="84.6247" x2="171.025" y2="84.4948" gradientUnits="userSpaceOnUse">
<stop offset="0.197917" stop-color="#B16CEA"/>
<stop offset="0.557292" stop-color="#FF5E69"/>
<stop offset="0.828125" stop-color="#FF8A56"/>
<stop offset="1" stop-color="#FFA84B"/>
</linearGradient>
<linearGradient id="paint44_linear_526_5357" x1="160.06" y1="85.6438" x2="160.639" y2="85.5141" gradientUnits="userSpaceOnUse">
<stop offset="0.197917" stop-color="#B16CEA"/>
<stop offset="0.557292" stop-color="#FF5E69"/>
<stop offset="0.828125" stop-color="#FF8A56"/>
<stop offset="1" stop-color="#FFA84B"/>
</linearGradient>
<linearGradient id="paint45_linear_526_5357" x1="157.366" y1="85.5745" x2="158.021" y2="85.4286" gradientUnits="userSpaceOnUse">
<stop offset="0.197917" stop-color="#B16CEA"/>
<stop offset="0.557292" stop-color="#FF5E69"/>
<stop offset="0.828125" stop-color="#FF8A56"/>
<stop offset="1" stop-color="#FFA84B"/>
</linearGradient>
<linearGradient id="paint46_linear_526_5357" x1="156.92" y1="85.1668" x2="157.576" y2="85.0207" gradientUnits="userSpaceOnUse">
<stop offset="0.197917" stop-color="#B16CEA"/>
<stop offset="0.557292" stop-color="#FF5E69"/>
<stop offset="0.828125" stop-color="#FF8A56"/>
<stop offset="1" stop-color="#FFA84B"/>
</linearGradient>
<linearGradient id="paint47_linear_526_5357" x1="181.232" y1="79.7194" x2="181.81" y2="79.5897" gradientUnits="userSpaceOnUse">
<stop offset="0.197917" stop-color="#B16CEA"/>
<stop offset="0.557292" stop-color="#FF5E69"/>
<stop offset="0.828125" stop-color="#FF8A56"/>
<stop offset="1" stop-color="#FFA84B"/>
</linearGradient>
<linearGradient id="paint48_linear_526_5357" x1="157.154" y1="83.1413" x2="157.518" y2="83.061" gradientUnits="userSpaceOnUse">
<stop offset="0.197917" stop-color="#B16CEA"/>
<stop offset="0.557292" stop-color="#FF5E69"/>
<stop offset="0.828125" stop-color="#FF8A56"/>
<stop offset="1" stop-color="#FFA84B"/>
</linearGradient>
<linearGradient id="paint49_linear_526_5357" x1="147.787" y1="83.3494" x2="148.442" y2="83.2036" gradientUnits="userSpaceOnUse">
<stop offset="0.197917" stop-color="#B16CEA"/>
<stop offset="0.557292" stop-color="#FF5E69"/>
<stop offset="0.828125" stop-color="#FF8A56"/>
<stop offset="1" stop-color="#FFA84B"/>
</linearGradient>
<linearGradient id="paint50_linear_526_5357" x1="151.988" y1="82.3625" x2="152.376" y2="82.2766" gradientUnits="userSpaceOnUse">
<stop offset="0.197917" stop-color="#B16CEA"/>
<stop offset="0.557292" stop-color="#FF5E69"/>
<stop offset="0.828125" stop-color="#FF8A56"/>
<stop offset="1" stop-color="#FFA84B"/>
</linearGradient>
<linearGradient id="paint51_linear_526_5357" x1="145.171" y1="82.5817" x2="145.56" y2="82.4959" gradientUnits="userSpaceOnUse">
<stop offset="0.197917" stop-color="#B16CEA"/>
<stop offset="0.557292" stop-color="#FF5E69"/>
<stop offset="0.828125" stop-color="#FF8A56"/>
<stop offset="1" stop-color="#FFA84B"/>
</linearGradient>
<linearGradient id="paint52_linear_526_5357" x1="147.983" y1="81.4002" x2="148.638" y2="81.2544" gradientUnits="userSpaceOnUse">
<stop offset="0.197917" stop-color="#B16CEA"/>
<stop offset="0.557292" stop-color="#FF5E69"/>
<stop offset="0.828125" stop-color="#FF8A56"/>
<stop offset="1" stop-color="#FFA84B"/>
</linearGradient>
<linearGradient id="paint53_linear_526_5357" x1="151.557" y1="80.6189" x2="152.212" y2="80.473" gradientUnits="userSpaceOnUse">
<stop offset="0.197917" stop-color="#B16CEA"/>
<stop offset="0.557292" stop-color="#FF5E69"/>
<stop offset="0.828125" stop-color="#FF8A56"/>
<stop offset="1" stop-color="#FFA84B"/>
</linearGradient>
<linearGradient id="paint54_linear_526_5357" x1="150.126" y1="80.1623" x2="150.706" y2="80.0323" gradientUnits="userSpaceOnUse">
<stop offset="0.197917" stop-color="#B16CEA"/>
<stop offset="0.557292" stop-color="#FF5E69"/>
<stop offset="0.828125" stop-color="#FF8A56"/>
<stop offset="1" stop-color="#FFA84B"/>
</linearGradient>
<linearGradient id="paint55_linear_526_5357" x1="169.608" y1="75.9085" x2="170.263" y2="75.7627" gradientUnits="userSpaceOnUse">
<stop offset="0.197917" stop-color="#B16CEA"/>
<stop offset="0.557292" stop-color="#FF5E69"/>
<stop offset="0.828125" stop-color="#FF8A56"/>
<stop offset="1" stop-color="#FFA84B"/>
</linearGradient>
<linearGradient id="paint56_linear_526_5357" x1="172.172" y1="74.7746" x2="172.56" y2="74.6888" gradientUnits="userSpaceOnUse">
<stop offset="0.197917" stop-color="#B16CEA"/>
<stop offset="0.557292" stop-color="#FF5E69"/>
<stop offset="0.828125" stop-color="#FF8A56"/>
<stop offset="1" stop-color="#FFA84B"/>
</linearGradient>
<linearGradient id="paint57_linear_526_5357" x1="173.961" y1="74.3834" x2="174.349" y2="74.2976" gradientUnits="userSpaceOnUse">
<stop offset="0.197917" stop-color="#B16CEA"/>
<stop offset="0.557292" stop-color="#FF5E69"/>
<stop offset="0.828125" stop-color="#FF8A56"/>
<stop offset="1" stop-color="#FFA84B"/>
</linearGradient>
<linearGradient id="paint58_linear_526_5357" x1="141.263" y1="79.5842" x2="141.842" y2="79.4545" gradientUnits="userSpaceOnUse">
<stop offset="0.197917" stop-color="#B16CEA"/>
<stop offset="0.557292" stop-color="#FF5E69"/>
<stop offset="0.828125" stop-color="#FF8A56"/>
<stop offset="1" stop-color="#FFA84B"/>
</linearGradient>
<linearGradient id="paint59_linear_526_5357" x1="324.855" y1="39.4977" x2="325.243" y2="39.4119" gradientUnits="userSpaceOnUse">
<stop offset="0.197917" stop-color="#B16CEA"/>
<stop offset="0.557292" stop-color="#FF5E69"/>
<stop offset="0.828125" stop-color="#FF8A56"/>
<stop offset="1" stop-color="#FFA84B"/>
</linearGradient>
<linearGradient id="paint60_linear_526_5357" x1="134.711" y1="80.4196" x2="135.099" y2="80.3337" gradientUnits="userSpaceOnUse">
<stop offset="0.197917" stop-color="#B16CEA"/>
<stop offset="0.557292" stop-color="#FF5E69"/>
<stop offset="0.828125" stop-color="#FF8A56"/>
<stop offset="1" stop-color="#FFA84B"/>
</linearGradient>
<linearGradient id="paint61_linear_526_5357" x1="170.733" y1="72.4851" x2="171.388" y2="72.3393" gradientUnits="userSpaceOnUse">
<stop offset="0.197917" stop-color="#B16CEA"/>
<stop offset="0.557292" stop-color="#FF5E69"/>
<stop offset="0.828125" stop-color="#FF8A56"/>
<stop offset="1" stop-color="#FFA84B"/>
</linearGradient>
<linearGradient id="paint62_linear_526_5357" x1="133.386" y1="80.0729" x2="133.775" y2="79.9871" gradientUnits="userSpaceOnUse">
<stop offset="0.197917" stop-color="#B16CEA"/>
<stop offset="0.557292" stop-color="#FF5E69"/>
<stop offset="0.828125" stop-color="#FF8A56"/>
<stop offset="1" stop-color="#FFA84B"/>
</linearGradient>
<linearGradient id="paint63_linear_526_5357" x1="170.19" y1="72.0304" x2="170.771" y2="71.9014" gradientUnits="userSpaceOnUse">
<stop offset="0.197917" stop-color="#B16CEA"/>
<stop offset="0.557292" stop-color="#FF5E69"/>
<stop offset="0.828125" stop-color="#FF8A56"/>
<stop offset="1" stop-color="#FFA84B"/>
</linearGradient>
<linearGradient id="paint64_linear_526_5357" x1="328.166" y1="37.5036" x2="328.529" y2="37.4233" gradientUnits="userSpaceOnUse">
<stop offset="0.197917" stop-color="#B16CEA"/>
<stop offset="0.557292" stop-color="#FF5E69"/>
<stop offset="0.828125" stop-color="#FF8A56"/>
<stop offset="1" stop-color="#FFA84B"/>
</linearGradient>
<linearGradient id="paint65_linear_526_5357" x1="328.394" y1="36.0672" x2="328.986" y2="35.9357" gradientUnits="userSpaceOnUse">
<stop offset="0.197917" stop-color="#B16CEA"/>
<stop offset="0.557292" stop-color="#FF5E69"/>
<stop offset="0.828125" stop-color="#FF8A56"/>
<stop offset="1" stop-color="#FFA84B"/>
</linearGradient>
<linearGradient id="paint66_linear_526_5357" x1="330.281" y1="35.7697" x2="330.669" y2="35.6838" gradientUnits="userSpaceOnUse">
<stop offset="0.197917" stop-color="#B16CEA"/>
<stop offset="0.557292" stop-color="#FF5E69"/>
<stop offset="0.828125" stop-color="#FF8A56"/>
<stop offset="1" stop-color="#FFA84B"/>
</linearGradient>
<linearGradient id="paint67_linear_526_5357" x1="134.048" y1="77.9826" x2="134.627" y2="77.8529" gradientUnits="userSpaceOnUse">
<stop offset="0.197917" stop-color="#B16CEA"/>
<stop offset="0.557292" stop-color="#FF5E69"/>
<stop offset="0.828125" stop-color="#FF8A56"/>
<stop offset="1" stop-color="#FFA84B"/>
</linearGradient>
<linearGradient id="paint68_linear_526_5357" x1="161.549" y1="72.0804" x2="162.205" y2="71.9343" gradientUnits="userSpaceOnUse">
<stop offset="0.197917" stop-color="#B16CEA"/>
<stop offset="0.557292" stop-color="#FF5E69"/>
<stop offset="0.828125" stop-color="#FF8A56"/>
<stop offset="1" stop-color="#FFA84B"/>
</linearGradient>
<linearGradient id="paint69_linear_526_5357" x1="165.031" y1="71.2785" x2="165.614" y2="71.1485" gradientUnits="userSpaceOnUse">
<stop offset="0.197917" stop-color="#B16CEA"/>
<stop offset="0.557292" stop-color="#FF5E69"/>
<stop offset="0.828125" stop-color="#FF8A56"/>
<stop offset="1" stop-color="#FFA84B"/>
</linearGradient>
<linearGradient id="paint70_linear_526_5357" x1="326.26" y1="35.951" x2="326.915" y2="35.8052" gradientUnits="userSpaceOnUse">
<stop offset="0.197917" stop-color="#B16CEA"/>
<stop offset="0.557292" stop-color="#FF5E69"/>
<stop offset="0.828125" stop-color="#FF8A56"/>
<stop offset="1" stop-color="#FFA84B"/>
</linearGradient>
<linearGradient id="paint71_linear_526_5357" x1="328.792" y1="35.6157" x2="329.384" y2="35.4844" gradientUnits="userSpaceOnUse">
<stop offset="0.197917" stop-color="#B16CEA"/>
<stop offset="0.557292" stop-color="#FF5E69"/>
<stop offset="0.828125" stop-color="#FF8A56"/>
<stop offset="1" stop-color="#FFA84B"/>
</linearGradient>
<linearGradient id="paint72_linear_526_5357" x1="131.529" y1="77.8977" x2="132.107" y2="77.768" gradientUnits="userSpaceOnUse">
<stop offset="0.197917" stop-color="#B16CEA"/>
<stop offset="0.557292" stop-color="#FF5E69"/>
<stop offset="0.828125" stop-color="#FF8A56"/>
<stop offset="1" stop-color="#FFA84B"/>
</linearGradient>
<linearGradient id="paint73_linear_526_5357" x1="120.432" y1="76.4871" x2="121.087" y2="76.3411" gradientUnits="userSpaceOnUse">
<stop offset="0.197917" stop-color="#B16CEA"/>
<stop offset="0.557292" stop-color="#FF5E69"/>
<stop offset="0.828125" stop-color="#FF8A56"/>
<stop offset="1" stop-color="#FFA84B"/>
</linearGradient>
<linearGradient id="paint74_linear_526_5357" x1="119.987" y1="76.0799" x2="120.642" y2="75.9339" gradientUnits="userSpaceOnUse">
<stop offset="0.197917" stop-color="#B16CEA"/>
<stop offset="0.557292" stop-color="#FF5E69"/>
<stop offset="0.828125" stop-color="#FF8A56"/>
<stop offset="1" stop-color="#FFA84B"/>
</linearGradient>
<linearGradient id="paint75_linear_526_5357" x1="160.21" y1="67.159" x2="160.864" y2="67.0132" gradientUnits="userSpaceOnUse">
<stop offset="0.197917" stop-color="#B16CEA"/>
<stop offset="0.557292" stop-color="#FF5E69"/>
<stop offset="0.828125" stop-color="#FF8A56"/>
<stop offset="1" stop-color="#FFA84B"/>
</linearGradient>
<linearGradient id="paint76_linear_526_5357" x1="118.556" y1="75.6482" x2="119.135" y2="75.5185" gradientUnits="userSpaceOnUse">
<stop offset="0.197917" stop-color="#B16CEA"/>
<stop offset="0.557292" stop-color="#FF5E69"/>
<stop offset="0.828125" stop-color="#FF8A56"/>
<stop offset="1" stop-color="#FFA84B"/>
</linearGradient>
<linearGradient id="paint77_linear_526_5357" x1="153.522" y1="67.9847" x2="154.177" y2="67.8387" gradientUnits="userSpaceOnUse">
<stop offset="0.197917" stop-color="#B16CEA"/>
<stop offset="0.557292" stop-color="#FF5E69"/>
<stop offset="0.828125" stop-color="#FF8A56"/>
<stop offset="1" stop-color="#FFA84B"/>
</linearGradient>
<linearGradient id="paint78_linear_526_5357" x1="159.663" y1="66.7047" x2="160.245" y2="66.5754" gradientUnits="userSpaceOnUse">
<stop offset="0.197917" stop-color="#B16CEA"/>
<stop offset="0.557292" stop-color="#FF5E69"/>
<stop offset="0.828125" stop-color="#FF8A56"/>
<stop offset="1" stop-color="#FFA84B"/>
</linearGradient>
<linearGradient id="paint79_linear_526_5357" x1="121.404" y1="74.3908" x2="121.983" y2="74.2608" gradientUnits="userSpaceOnUse">
<stop offset="0.197917" stop-color="#B16CEA"/>
<stop offset="0.557292" stop-color="#FF5E69"/>
<stop offset="0.828125" stop-color="#FF8A56"/>
<stop offset="1" stop-color="#FFA84B"/>
</linearGradient>
<linearGradient id="paint80_linear_526_5357" x1="152.98" y1="67.5294" x2="153.56" y2="67.4004" gradientUnits="userSpaceOnUse">
<stop offset="0.197917" stop-color="#B16CEA"/>
<stop offset="0.557292" stop-color="#FF5E69"/>
<stop offset="0.828125" stop-color="#FF8A56"/>
<stop offset="1" stop-color="#FFA84B"/>
</linearGradient>
<linearGradient id="paint81_linear_526_5357" x1="155.942" y1="66.2445" x2="156.416" y2="66.1396" gradientUnits="userSpaceOnUse">
<stop offset="0.197917" stop-color="#B16CEA"/>
<stop offset="0.557292" stop-color="#FF5E69"/>
<stop offset="0.828125" stop-color="#FF8A56"/>
<stop offset="1" stop-color="#FFA84B"/>
</linearGradient>
<linearGradient id="paint82_linear_526_5357" x1="118.198" y1="73.745" x2="118.791" y2="73.6134" gradientUnits="userSpaceOnUse">
<stop offset="0.197917" stop-color="#B16CEA"/>
<stop offset="0.557292" stop-color="#FF5E69"/>
<stop offset="0.828125" stop-color="#FF8A56"/>
<stop offset="1" stop-color="#FFA84B"/>
</linearGradient>
<linearGradient id="paint83_linear_526_5357" x1="154.315" y1="65.9036" x2="154.97" y2="65.7578" gradientUnits="userSpaceOnUse">
<stop offset="0.197917" stop-color="#B16CEA"/>
<stop offset="0.557292" stop-color="#FF5E69"/>
<stop offset="0.828125" stop-color="#FF8A56"/>
<stop offset="1" stop-color="#FFA84B"/>
</linearGradient>
<linearGradient id="paint84_linear_526_5357" x1="118.632" y1="73.1298" x2="119.213" y2="73.0005" gradientUnits="userSpaceOnUse">
<stop offset="0.197917" stop-color="#B16CEA"/>
<stop offset="0.557292" stop-color="#FF5E69"/>
<stop offset="0.828125" stop-color="#FF8A56"/>
<stop offset="1" stop-color="#FFA84B"/>
</linearGradient>
<linearGradient id="paint85_linear_526_5357" x1="121.142" y1="72.5798" x2="121.507" y2="72.4992" gradientUnits="userSpaceOnUse">
<stop offset="0.197917" stop-color="#B16CEA"/>
<stop offset="0.557292" stop-color="#FF5E69"/>
<stop offset="0.828125" stop-color="#FF8A56"/>
<stop offset="1" stop-color="#FFA84B"/>
</linearGradient>
<linearGradient id="paint86_linear_526_5357" x1="153.87" y1="65.4969" x2="154.524" y2="65.3511" gradientUnits="userSpaceOnUse">
<stop offset="0.197917" stop-color="#B16CEA"/>
<stop offset="0.557292" stop-color="#FF5E69"/>
<stop offset="0.828125" stop-color="#FF8A56"/>
<stop offset="1" stop-color="#FFA84B"/>
</linearGradient>
<linearGradient id="paint87_linear_526_5357" x1="150.195" y1="65.5963" x2="150.583" y2="65.5105" gradientUnits="userSpaceOnUse">
<stop offset="0.197917" stop-color="#B16CEA"/>
<stop offset="0.557292" stop-color="#FF5E69"/>
<stop offset="0.828125" stop-color="#FF8A56"/>
<stop offset="1" stop-color="#FFA84B"/>
</linearGradient>
<linearGradient id="paint88_linear_526_5357" x1="152.445" y1="64.4684" x2="152.833" y2="64.3826" gradientUnits="userSpaceOnUse">
<stop offset="0.197917" stop-color="#B16CEA"/>
<stop offset="0.557292" stop-color="#FF5E69"/>
<stop offset="0.828125" stop-color="#FF8A56"/>
<stop offset="1" stop-color="#FFA84B"/>
</linearGradient>
<linearGradient id="paint89_linear_526_5357" x1="99.1708" y1="69.7567" x2="99.7513" y2="69.6276" gradientUnits="userSpaceOnUse">
<stop offset="0.197917" stop-color="#B16CEA"/>
<stop offset="0.557292" stop-color="#FF5E69"/>
<stop offset="0.828125" stop-color="#FF8A56"/>
<stop offset="1" stop-color="#FFA84B"/>
</linearGradient>
<linearGradient id="paint90_linear_526_5357" x1="98.5413" y1="69.3274" x2="99.1968" y2="69.1815" gradientUnits="userSpaceOnUse">
<stop offset="0.197917" stop-color="#B16CEA"/>
<stop offset="0.557292" stop-color="#FF5E69"/>
<stop offset="0.828125" stop-color="#FF8A56"/>
<stop offset="1" stop-color="#FFA84B"/>
</linearGradient>
<linearGradient id="paint91_linear_526_5357" x1="96.6286" y1="69.0412" x2="97.0168" y2="68.9554" gradientUnits="userSpaceOnUse">
<stop offset="0.197917" stop-color="#B16CEA"/>
<stop offset="0.557292" stop-color="#FF5E69"/>
<stop offset="0.828125" stop-color="#FF8A56"/>
<stop offset="1" stop-color="#FFA84B"/>
</linearGradient>
<linearGradient id="paint92_linear_526_5357" x1="96.7928" y1="64.5852" x2="97.3764" y2="64.4549" gradientUnits="userSpaceOnUse">
<stop offset="0.197917" stop-color="#B16CEA"/>
<stop offset="0.557292" stop-color="#FF5E69"/>
<stop offset="0.828125" stop-color="#FF8A56"/>
<stop offset="1" stop-color="#FFA84B"/>
</linearGradient>
<linearGradient id="paint93_linear_526_5357" x1="79.6084" y1="65.6548" x2="80.1999" y2="65.5235" gradientUnits="userSpaceOnUse">
<stop offset="0.197917" stop-color="#B16CEA"/>
<stop offset="0.557292" stop-color="#FF5E69"/>
<stop offset="0.828125" stop-color="#FF8A56"/>
<stop offset="1" stop-color="#FFA84B"/>
</linearGradient>
</defs>
</svg>
