<svg width="80" height="80" viewBox="0 0 80 80" fill="none" xmlns="http://www.w3.org/2000/svg">
<path d="M43.75 57.4999V29.9999C43.75 26.0217 45.3304 22.2064 48.1434 19.3933C50.9564 16.5803 54.7718 14.9999 58.75 14.9999C59.413 14.9999 60.0489 15.2633 60.5178 15.7322C60.9866 16.201 61.25 16.8369 61.25 17.4999C61.25 18.163 60.9866 18.7989 60.5178 19.2677C60.0489 19.7365 59.413 19.9999 58.75 19.9999C56.1004 20.0082 53.5616 21.0644 51.688 22.938C49.8145 24.8116 48.7582 27.3503 48.75 29.9999V32.4999H67.5C68.8261 32.4999 70.0979 33.0267 71.0355 33.9644C71.9732 34.9021 72.5 36.1739 72.5 37.4999V57.4999C72.5 58.826 71.9732 60.0978 71.0355 61.0355C70.0979 61.9732 68.8261 62.4999 67.5 62.4999H48.75C47.4239 62.4999 46.1521 61.9732 45.2145 61.0355C44.2768 60.0978 43.75 58.826 43.75 57.4999ZM12.5 62.4999H31.25C32.5761 62.4999 33.8479 61.9732 34.7855 61.0355C35.7232 60.0978 36.25 58.826 36.25 57.4999V37.4999C36.25 36.1739 35.7232 34.9021 34.7855 33.9644C33.8479 33.0267 32.5761 32.4999 31.25 32.4999H12.5V29.9999C12.5082 27.3503 13.5645 24.8116 15.438 22.938C17.3116 21.0644 19.8504 20.0082 22.5 19.9999C23.163 19.9999 23.7989 19.7365 24.2678 19.2677C24.7366 18.7989 25 18.163 25 17.4999C25 16.8369 24.7366 16.201 24.2678 15.7322C23.7989 15.2633 23.163 14.9999 22.5 14.9999C18.5218 14.9999 14.7064 16.5803 11.8934 19.3933C9.08035 22.2064 7.5 26.0217 7.5 29.9999V57.4999C7.5 58.826 8.02679 60.0978 8.96447 61.0355C9.90215 61.9732 11.1739 62.4999 12.5 62.4999Z" fill="url(#paint0_linear_421_1487)"/>
<defs>
<linearGradient id="paint0_linear_421_1487" x1="77.9366" y1="26.8749" x2="14.6828" y2="27.1906" gradientUnits="userSpaceOnUse">
<stop offset="0.197917" stop-color="#B16CEA"/>
<stop offset="0.557292" stop-color="#FF5E69"/>
<stop offset="0.828125" stop-color="#FF8A56"/>
<stop offset="1" stop-color="#FFA84B"/>
</linearGradient>
</defs>
</svg>
