<svg width="127" height="20" viewBox="0 0 127 20" fill="none" xmlns="http://www.w3.org/2000/svg">
<path fill-rule="evenodd" clip-rule="evenodd" d="M9.99487 0.835938C10.3121 0.835938 10.6018 1.01602 10.7421 1.30047L13.1198 6.11825L18.4361 6.88872C18.7501 6.93424 19.0111 7.15421 19.1091 7.45605C19.2071 7.7579 19.1252 8.08922 18.8978 8.31058L15.0453 12.0606L15.9537 17.3559C16.0074 17.6687 15.8787 17.9848 15.6219 18.1712C15.365 18.3576 15.0246 18.382 14.7439 18.234L10.0003 15.7343L5.24517 18.2344C4.9644 18.382 4.62417 18.3574 4.36755 18.171C4.11092 17.9845 3.9824 17.6685 4.03603 17.3559L4.94439 12.0606L1.09194 8.31058C0.864528 8.08922 0.782591 7.7579 0.880613 7.45605C0.978634 7.15421 1.2396 6.93424 1.55368 6.88872L6.8699 6.11825L9.24759 1.30047C9.38797 1.01602 9.67766 0.835938 9.99487 0.835938Z" fill="#0D0E10"/>
<path fill-rule="evenodd" clip-rule="evenodd" d="M36.6609 0.835938C36.9781 0.835938 37.2678 1.01602 37.4082 1.30047L39.7859 6.11825L45.1021 6.88872C45.4162 6.93424 45.6771 7.15421 45.7751 7.45605C45.8732 7.7579 45.7912 8.08922 45.5638 8.31058L41.7114 12.0606L42.6197 17.3559C42.6734 17.6687 42.5447 17.9848 42.2879 18.1712C42.0311 18.3576 41.6906 18.382 41.4099 18.234L36.6663 15.7343L31.9112 18.2344C31.6304 18.382 31.2902 18.3574 31.0336 18.171C30.7769 17.9845 30.6484 17.6685 30.702 17.3559L31.6104 12.0606L27.758 8.31058C27.5305 8.08922 27.4486 7.7579 27.5466 7.45605C27.6446 7.15421 27.9056 6.93424 28.2197 6.88872L33.5359 6.11825L35.9136 1.30047C36.054 1.01602 36.3437 0.835938 36.6609 0.835938Z" fill="#0D0E10"/>
<path fill-rule="evenodd" clip-rule="evenodd" d="M63.3289 0.835938C63.6461 0.835938 63.9358 1.01602 64.0761 1.30047L66.4538 6.11825L71.77 6.88872C72.0841 6.93424 72.3451 7.15421 72.4431 7.45605C72.5411 7.7579 72.4592 8.08922 72.2318 8.31058L68.3793 12.0606L69.2877 17.3559C69.3413 17.6687 69.2127 17.9848 68.9559 18.1712C68.699 18.3576 68.3586 18.382 68.0779 18.234L63.3342 15.7343L58.5792 18.2344C58.2984 18.382 57.9582 18.3574 57.7015 18.171C57.4449 17.9845 57.3164 17.6685 57.37 17.3559L58.2784 12.0606L54.4259 8.31058C54.1985 8.08922 54.1166 7.7579 54.2146 7.45605C54.3126 7.15421 54.5736 6.93424 54.8877 6.88872L60.2039 6.11825L62.5816 1.30047C62.722 1.01602 63.0116 0.835938 63.3289 0.835938Z" fill="#0D0E10"/>
<path fill-rule="evenodd" clip-rule="evenodd" d="M89.9949 0.835938C90.3121 0.835938 90.6018 1.01602 90.7421 1.30047L93.1198 6.11825L98.4361 6.88872C98.7501 6.93424 99.0111 7.15421 99.1091 7.45605C99.2071 7.7579 99.1252 8.08922 98.8978 8.31058L95.0453 12.0606L95.9537 17.3559C96.0074 17.6687 95.8787 17.9848 95.6219 18.1712C95.365 18.3576 95.0246 18.382 94.7439 18.234L90.0003 15.7343L85.2452 18.2344C84.9644 18.382 84.6242 18.3574 84.3675 18.171C84.1109 17.9845 83.9824 17.6685 84.036 17.3559L84.9444 12.0606L81.0919 8.31058C80.8645 8.08922 80.7826 7.7579 80.8806 7.45605C80.9786 7.15421 81.2396 6.93424 81.5537 6.88872L86.8699 6.11825L89.2476 1.30047C89.388 1.01602 89.6777 0.835938 89.9949 0.835938Z" fill="#0D0E10"/>
<path fill-rule="evenodd" clip-rule="evenodd" d="M116.661 0.835938C116.978 0.835938 117.268 1.01602 117.408 1.30047L119.786 6.11825L125.102 6.88872C125.416 6.93424 125.677 7.15421 125.775 7.45605C125.873 7.7579 125.791 8.08922 125.564 8.31058L121.711 12.0606L122.62 17.3559C122.673 17.6687 122.545 17.9848 122.288 18.1712C122.031 18.3576 121.691 18.382 121.41 18.234L116.666 15.7343L111.911 18.2344C111.63 18.382 111.29 18.3574 111.034 18.171C110.777 17.9845 110.648 17.6685 110.702 17.3559L111.61 12.0606L107.758 8.31058C107.531 8.08922 107.449 7.7579 107.547 7.45605C107.645 7.15421 107.906 6.93424 108.22 6.88872L113.536 6.11825L115.914 1.30047C116.054 1.01602 116.344 0.835938 116.661 0.835938Z" fill="#0D0E10"/>
</svg>
